<?xml version="1.0" encoding="UTF-8" standalone="no"?>
<!-- Created with Inkscape (http://www.inkscape.org/) -->
<svg xmlns:dc="http://purl.org/dc/elements/1.1/" xmlns:cc="http://creativecommons.org/ns#" xmlns:rdf="http://www.w3.org/1999/02/22-rdf-syntax-ns#" xmlns:svg="http://www.w3.org/2000/svg" xmlns="http://www.w3.org/2000/svg" xmlns:xlink="http://www.w3.org/1999/xlink" xmlns:sodipodi="http://sodipodi.sourceforge.net/DTD/sodipodi-0.dtd" xmlns:inkscape="http://www.inkscape.org/namespaces/inkscape" height="128.00000pt" id="svg1" inkscape:version="0.46" sodipodi:docbase="/home/andy/Desktop/etiquette-icons-0.3/scalable/mimetypes" sodipodi:docname="gnome-mime-audio-x-ogg.svg" sodipodi:version="0.32" width="128.00000pt" inkscape:output_extension="org.inkscape.output.svg.inkscape" inkscape:export-filename="C:\Documents and Settings\All Users\Documents\Ubuntu Brig\Andy Fitzsimon\gnome-mime-audio-x-ogg.png" inkscape:export-xdpi="90" inkscape:export-ydpi="90">
  <metadata id="metadata3">
    <rdf:RDF>
      <cc:Work rdf:about="">
        <dc:title>Etiquette Icons</dc:title>
        <dc:description/>
        <dc:subject>
          <rdf:Bag>
            <rdf:li>hash</rdf:li>
            <rdf:li/>
            <rdf:li>mime-types</rdf:li>
            <rdf:li>computer</rdf:li>
            <rdf:li>icons</rdf:li>
          </rdf:Bag>
        </dc:subject>
        <dc:publisher>
          <cc:Agent rdf:about="http://www.openclipart.org">
            <dc:title>Andy Fitzsimon</dc:title>
          </cc:Agent>
        </dc:publisher>
        <dc:creator>
          <cc:Agent>
            <dc:title>Andy Fitzsimon</dc:title>
          </cc:Agent>
        </dc:creator>
        <dc:rights>
          <cc:Agent>
            <dc:title>Andy Fitzsimon</dc:title>
          </cc:Agent>
        </dc:rights>
        <dc:date/>
        <dc:format>image/svg+xml</dc:format>
        <dc:type rdf:resource="http://purl.org/dc/dcmitype/StillImage"/>
        <cc:license rdf:resource="http://web.resource.org/cc/PublicDomain"/>
        <dc:language>en</dc:language>
      </cc:Work>
      <cc:License rdf:about="http://web.resource.org/cc/PublicDomain">
        <cc:permits rdf:resource="http://web.resource.org/cc/Reproduction"/>
        <cc:permits rdf:resource="http://web.resource.org/cc/Distribution"/>
        <cc:permits rdf:resource="http://web.resource.org/cc/DerivativeWorks"/>
      </cc:License>
    </rdf:RDF>
  </metadata>
  <defs id="defs3">
    <inkscape:perspective sodipodi:type="inkscape:persp3d" inkscape:vp_x="0 : 80 : 1" inkscape:vp_y="0 : 1000 : 0" inkscape:vp_z="160 : 80 : 1" inkscape:persp3d-origin="80 : 53.333333 : 1" id="perspective80"/>
    <linearGradient id="linearGradient1560">
      <stop id="stop1561" offset="0.00000000" style="stop-color:#cccccc;stop-opacity:1;"/>
      <stop id="stop1562" offset="1.00000000" style="stop-color:#ffffff;stop-opacity:1;"/>
    </linearGradient>
    <linearGradient id="linearGradient580">
      <stop id="stop581" offset="0.0000000" style="stop-color:#cccccc;stop-opacity:1.0000000;"/>
      <stop id="stop582" offset="1.00000000" style="stop-color:#ffffff;stop-opacity:1;"/>
    </linearGradient>
    <linearGradient id="linearGradient676">
      <stop id="stop677" offset="0.0000000" style="stop-color:#000000;stop-opacity:0.73595506;"/>
      <stop id="stop678" offset="1.0000000" style="stop-color:#000000;stop-opacity:0.00000000;"/>
    </linearGradient>
    <linearGradient id="linearGradient924">
      <stop id="stop925" offset="0.00000000" style="stop-color:#ffffff;stop-opacity:0.00000000;"/>
      <stop id="stop926" offset="1.00000000" style="stop-color:#ffffff;stop-opacity:1;"/>
    </linearGradient>
    <linearGradient id="linearGradient912" xlink:href="#linearGradient676"/>
    <linearGradient id="linearGradient911" x1="0.17647059" x2="0.89411765" xlink:href="#linearGradient676" y1="0.44680852" y2="0.49645391"/>
    <linearGradient id="linearGradient937" x1="0.55654812" x2="1.1531358" xlink:href="#linearGradient676" y1="0.13974567" y2="0.18972333"/>
    <linearGradient id="linearGradient682" x1="0.53554261" x2="1.1321301" xlink:href="#linearGradient676" y1="-0.64926183" y2="-0.59928417"/>
    <linearGradient id="linearGradient895" xlink:href="#linearGradient1560"/>
    <linearGradient id="linearGradient683" x1="-7.4538899e-19" x2="1.0000000" xlink:href="#linearGradient580" y1="0.50000000" y2="0.50000000"/>
    <linearGradient id="linearGradient1535">
      <stop id="stop1536" offset="0.00000000" style="stop-color:#9f9f9f;stop-opacity:1.0000000;"/>
      <stop id="stop1537" offset="1.00000000" style="stop-color:#ffffff;stop-opacity:1;"/>
    </linearGradient>
    <linearGradient id="linearGradient896" x1="0.72183096" x2="-0.010563380" xlink:href="#linearGradient1535" y1="-0.21078432" y2="1.0343137"/>
    <linearGradient id="linearGradient583" xlink:href="#linearGradient580"/>
    <linearGradient id="linearGradient589" x1="0.94366199" x2="-0.26408452" xlink:href="#linearGradient580" y1="0.49253732" y2="0.47512439"/>
    <linearGradient id="linearGradient1003" x1="0.28873238" x2="0.48239437" xlink:href="#linearGradient676" y1="0.54929590" y2="-0.53521174"/>
    <radialGradient cx="0.50000000" cy="0.50000000" fx="0.50000000" fy="0.50000000" id="radialGradient675" r="0.50000000" xlink:href="#linearGradient676"/>
    <linearGradient id="linearGradient1002" x1="0.97536951" x2="0.52284265" xlink:href="#linearGradient676" y1="1.0703126" y2="0.14843747"/>
    <linearGradient id="linearGradient1507">
      <stop id="stop1508" offset="0.0000000" style="stop-color:#000000;stop-opacity:0.095505618;"/>
      <stop id="stop1510" offset="1.0000000" style="stop-color:#000000;stop-opacity:0.0000000;"/>
    </linearGradient>
    <linearGradient id="linearGradient1501">
      <stop id="stop1502" offset="0.0000000" style="stop-color:#ffffff;stop-opacity:1.0000000;"/>
      <stop id="stop1504" offset="1.0000000" style="stop-color:#ffffff;stop-opacity:0.0000000;"/>
    </linearGradient>
    <linearGradient id="linearGradient1492">
      <stop id="stop1493" offset="0.0000000" style="stop-color:#dadada;stop-opacity:1.0000000;"/>
      <stop id="stop1496" offset="0.34923077" style="stop-color:#f1f1f1;stop-opacity:1.0000000;"/>
      <stop id="stop1494" offset="1.0000000" style="stop-color:#f0f0f0;stop-opacity:1.0000000;"/>
    </linearGradient>
    <linearGradient id="linearGradient1495" x1="0.88034189" x2="0.085470088" xlink:href="#linearGradient1492" y1="0.21093750" y2="1.1796875"/>
    <linearGradient id="linearGradient1497" x1="0.63247865" x2="-0.37606838" xlink:href="#linearGradient1492" y1="0.32812500" y2="1.3281250"/>
    <linearGradient id="linearGradient1499" x1="0.85826772" x2="0.062992126" xlink:href="#linearGradient1501" y1="0.14062500" y2="0.54687500"/>
    <linearGradient id="linearGradient1506" x1="0.052173913" x2="0.78260869" xlink:href="#linearGradient1507" y1="0.97656250" y2="0.0078125000"/>
    <linearGradient id="linearGradient1556" xlink:href="#linearGradient1507"/>
    <linearGradient id="linearGradient957" x1="0.49122807" x2="0.53216374" xlink:href="#linearGradient924" y1="0.59375000" y2="-0.28125000"/>
    <linearGradient id="linearGradient955" xlink:href="#linearGradient924"/>
    <linearGradient id="linearGradient927" xlink:href="#linearGradient924"/>
  </defs>
  <sodipodi:namedview bordercolor="#666666" borderopacity="1.0" id="base" inkscape:cx="78.303938" inkscape:cy="69.740143" inkscape:pageopacity="0.0" inkscape:pageshadow="2" inkscape:window-height="667" inkscape:window-width="573" inkscape:window-x="288" inkscape:window-y="52" inkscape:zoom="1.6225967" pagecolor="#ffffff" showgrid="false" inkscape:current-layer="svg1"/>
  <path d="M 17.159384,6.3292894 L 17.159384,43.068526 L 17.159384,79.807768 L 17.159384,116.54700 L 17.159384,153.28624 L 50.687024,153.28624 L 84.214664,153.28624 L 117.74230,153.28624 L 151.26994,153.28624 L 151.26994,116.54700 L 151.26994,79.807768 L 151.26994,43.068526 L 117.74230,6.3292894 L 84.214664,6.3292894 L 50.687024,6.3292894 L 17.159384,6.3292894 z " id="path930" sodipodi:nodetypes="cccccccccccccccc" style="fill:#ffffff;fill-rule:evenodd;stroke-width:0.42649043;stroke-opacity:0.36477986;"/>
  <g id="g1552" style="fill:url(#linearGradient1506);" transform="matrix(0.304171,0.000000,0.000000,0.297572,-36.70399,-112.4880)">
    <path d="M 173.35959,408.81260 L 173.35959,531.07360 L 173.35959,653.33460 L 173.35959,775.59560 L 173.35959,897.85660 L 282.12187,897.85660 L 390.88417,897.85660 L 499.64646,897.85660 L 608.40874,897.85660 L 608.40874,775.59560 L 608.40874,653.33460 L 608.40874,531.07360 L 499.64646,408.81260 L 390.88417,408.81260 L 282.12187,408.81260 L 173.35959,408.81260 z " id="path1505" sodipodi:nodetypes="cccccccccccccccc" style="fill-opacity:0.75000000;fill-rule:evenodd;stroke-width:0.95407495pt;"/>
    <path d="M 170.12500,407.18750 C 170.12500,571.82292 170.12500,736.45833 170.12500,901.09375 C 317.30208,901.09375 464.47917,901.09375 611.65625,901.09375 C 611.65625,777.33333 611.65625,653.57292 611.65625,529.81250 C 574.80918,488.38978 537.97604,446.95335 501.09375,405.56250 C 390.77083,405.56250 280.44792,405.56250 170.12500,405.56250 C 170.12500,405.89583 170.12500,406.97917 170.12500,407.18750 z " id="path1538" style="fill-opacity:0.75000000;fill-rule:evenodd;stroke-width:0.95407495pt;"/>
    <path d="M 166.87500,403.93750 C 166.87500,570.73958 166.87500,737.54167 166.87500,904.34375 C 316.21875,904.34375 465.56250,904.34375 614.90625,904.34375 C 614.90625,779.08333 614.90625,653.82292 614.90625,528.56250 C 577.45517,486.47298 540.01754,444.37017 502.53125,402.31250 C 390.64583,402.31250 278.76042,402.31250 166.87500,402.31250 C 166.87500,402.64583 166.87500,403.72917 166.87500,403.93750 z " id="path1543" style="fill-opacity:0.75000000;fill-rule:evenodd;stroke-width:0.95407495pt;"/>
  </g>
  <path d="M 297.99034,136.74154 L 297.99034,260.57234 L 297.99034,384.40315 L 297.99034,508.23395 L 297.99034,632.06475 L 410.99634,632.06475 L 524.00235,632.06475 L 637.00835,632.06475 L 750.01435,632.06475 L 750.01435,508.23395 L 750.01435,384.40315 L 750.01435,260.57234 L 637.00835,136.74154 L 524.00235,136.74154 L 410.99634,136.74154 L 297.99034,136.74154 z " id="rect900" sodipodi:nodetypes="cccccccccccccccc" style="fill:url(#linearGradient1495);fill-opacity:1;fill-rule:evenodd;stroke:#000000;stroke-width:1.4375000;stroke-opacity:0.36477986;" transform="matrix(0.296689,0.000000,0.000000,0.296689,-71.19601,-34.05825)"/>
  <path d="M 301.30655,174.90867 L 299.27069,628.90434 L 743.08709,628.90434 L 743.34157,516.67783 C 733.41677,520.49506 633.15091,378.49417 506.92790,384.60173 C 380.59029,390.71484 413.27857,193.23136 301.30655,174.90867 z " id="path1500" sodipodi:nodetypes="cccczc" style="fill:url(#linearGradient1499);fill-opacity:1;fill-rule:evenodd;stroke-width:1.0000000pt;" transform="matrix(0.296689,0.000000,0.000000,0.296689,-71.19601,-34.05825)"/>
  <path d="M 750.01435,260.57234 C 715.94460,250.48602 671.79788,251.91624 638.44792,257.66516 C 644.20618,220.71628 644.92597,174.41021 637.00835,136.74154 L 750.01435,260.57234 z " id="path906" sodipodi:nodetypes="cccc" style="fill:url(#linearGradient1497);fill-opacity:1;fill-rule:evenodd;stroke-width:0.95407495pt;" transform="matrix(0.296689,0.000000,0.000000,0.296689,-71.19601,-34.05825)"/>
  <path style="font-size:12px;stroke-width:1pt;font-family:Bitstream Vera Sans" d="M 18.969444,182.28275 L 18.969444,173.6929 L 20.680382,173.6929 L 22.713585,179.77493 C 22.90108,180.34134 23.037799,180.76517 23.123741,181.04642 C 23.221392,180.73392 23.373736,180.27493 23.580772,179.66946 L 25.637413,173.6929 L 27.16671,173.6929 L 27.16671,182.28275 L 26.071007,182.28275 L 26.071007,175.09329 L 23.574913,182.28275 L 22.549522,182.28275 L 20.065147,174.97025 L 20.065147,182.28275 L 18.969444,182.28275 z M 32.955772,182.28275 L 32.955772,181.36868 C 32.471393,182.07181 31.813191,182.42337 30.981163,182.42337 C 30.613973,182.42337 30.2712,182.35306 29.952843,182.21243 C 29.634482,182.07181 29.398154,181.89505 29.243858,181.68216 C 29.08956,181.46927 28.981162,181.20853 28.918663,180.89993 C 28.875693,180.6929 28.854209,180.36478 28.85421,179.91556 L 28.85421,176.06009 L 29.908897,176.06009 L 29.908897,179.51126 C 29.908896,180.06204 29.93038,180.43314 29.973351,180.62454 C 30.039755,180.90189 30.18038,181.11966 30.395226,181.27786 C 30.610067,181.43607 30.875691,181.51517 31.192101,181.51517 C 31.508503,181.51517 31.805378,181.43411 32.082726,181.272 C 32.360065,181.10989 32.556354,180.88919 32.671593,180.60989 C 32.786822,180.3306 32.84444,179.92533 32.844444,179.39407 L 32.844444,176.06009 L 33.899132,176.06009 L 33.899132,182.28275 L 32.955772,182.28275 z M 35.13546,180.42532 L 36.178429,180.26126 C 36.237021,180.67923 36.400107,180.99954 36.667686,181.2222 C 36.935262,181.44486 37.309285,181.55618 37.789757,181.55618 C 38.274128,181.55618 38.633503,181.45755 38.867882,181.26028 C 39.102252,181.06302 39.21944,180.83157 39.219444,180.56595 C 39.21944,180.32767 39.115924,180.14017 38.908897,180.00345 C 38.764362,179.9097 38.404988,179.79056 37.830772,179.64603 C 37.057333,179.45072 36.5212,179.28177 36.222374,179.13919 C 35.923545,178.99662 35.696982,178.79935 35.542686,178.54739 C 35.388389,178.29544 35.311241,178.01712 35.311241,177.71243 C 35.311241,177.43509 35.374717,177.17826 35.501671,176.94193 C 35.628623,176.7056 35.801474,176.50931 36.020226,176.35306 C 36.184287,176.23197 36.407919,176.12943 36.691124,176.04544 C 36.974325,175.96146 37.278036,175.91947 37.602257,175.91946 C 38.090535,175.91947 38.519245,175.98978 38.88839,176.1304 C 39.257526,176.27103 39.529986,176.46146 39.705772,176.70169 C 39.881549,176.94193 40.002642,177.26322 40.069054,177.66556 L 39.037804,177.80618 C 38.990924,177.48588 38.855182,177.23588 38.630577,177.05618 C 38.405964,176.8765 38.088582,176.78666 37.678429,176.78665 C 37.194051,176.78666 36.848348,176.86674 36.641319,177.02689 C 36.434286,177.18705 36.330771,177.37455 36.330772,177.58939 C 36.330771,177.72611 36.37374,177.84916 36.459679,177.95853 C 36.545614,178.07181 36.68038,178.16556 36.863976,178.23978 C 36.969442,178.27884 37.279989,178.36869 37.795616,178.50931 C 38.541706,178.70853 39.062213,178.87162 39.35714,178.99857 C 39.652057,179.12552 39.883502,179.31009 40.051476,179.55228 C 40.219439,179.79447 40.303423,180.09525 40.303429,180.45462 C 40.303423,180.80618 40.200884,181.13724 39.995811,181.44778 C 39.790728,181.75833 39.49483,181.99857 39.108116,182.16849 C 38.721393,182.33841 38.283894,182.42337 37.795616,182.42337 C 36.98702,182.42337 36.37081,182.2554 35.946983,181.91946 C 35.523154,181.58353 35.252647,181.08548 35.13546,180.42532 L 35.13546,180.42532 z M 41.563194,174.90579 L 41.563194,173.6929 L 42.617882,173.6929 L 42.617882,174.90579 L 41.563194,174.90579 z M 41.563194,182.28275 L 41.563194,176.06009 L 42.617882,176.06009 L 42.617882,182.28275 L 41.563194,182.28275 z M 48.289757,180.00345 L 49.326866,180.13821 C 49.213579,180.85306 48.92354,181.41263 48.456749,181.81693 C 47.989948,182.22122 47.416706,182.42337 46.737022,182.42337 C 45.885457,182.42337 45.200888,182.14505 44.683311,181.58841 C 44.165733,181.03177 43.906944,180.23392 43.906944,179.19485 C 43.906944,178.52298 44.018272,177.93509 44.240929,177.43118 C 44.463584,176.92728 44.802451,176.54935 45.25753,176.29739 C 45.712606,176.04545 46.207723,175.91947 46.742882,175.91946 C 47.418659,175.91947 47.971393,176.09037 48.401085,176.43216 C 48.830767,176.77396 49.106157,177.25931 49.227257,177.88821 L 48.201866,178.04642 C 48.104205,177.62845 47.931354,177.314 47.683311,177.10306 C 47.435261,176.89213 47.135456,176.78666 46.783897,176.78665 C 46.252645,176.78666 45.821004,176.97709 45.488976,177.35794 C 45.156943,177.7388 44.990927,178.34134 44.990929,179.16556 C 44.990927,180.0015 45.151083,180.60892 45.471397,180.98782 C 45.791708,181.36673 46.209676,181.55618 46.725304,181.55618 C 47.139362,181.55618 47.485065,181.42923 47.762413,181.17532 C 48.039752,180.92142 48.215533,180.53079 48.289757,180.00345 L 48.289757,180.00345 z M 53.750694,182.28275 L 53.750694,173.6929 L 59.545616,173.6929 L 59.545616,174.70657 L 54.887413,174.70657 L 54.887413,177.36673 L 58.918663,177.36673 L 58.918663,178.3804 L 54.887413,178.3804 L 54.887413,182.28275 L 53.750694,182.28275 z M 60.899132,174.90579 L 60.899132,173.6929 L 61.953819,173.6929 L 61.953819,174.90579 L 60.899132,174.90579 z M 60.899132,182.28275 L 60.899132,176.06009 L 61.953819,176.06009 L 61.953819,182.28275 L 60.899132,182.28275 z M 63.54171,182.28275 L 63.54171,173.6929 L 64.596397,173.6929 L 64.596397,182.28275 L 63.54171,182.28275 z M 70.496788,180.27884 L 71.586632,180.4136 C 71.414751,181.05032 71.096392,181.54446 70.631554,181.89603 C 70.166705,182.24759 69.572956,182.42337 68.850304,182.42337 C 67.940145,182.42337 67.218466,182.1431 66.685265,181.58255 C 66.152061,181.022 65.885459,180.23587 65.88546,179.22415 C 65.885459,178.17728 66.15499,177.36478 66.694054,176.78665 C 67.233114,176.20853 67.932332,175.91947 68.79171,175.91946 C 69.623737,175.91947 70.303424,176.20267 70.830772,176.76907 C 71.35811,177.33548 71.621782,178.13236 71.621788,179.1597 C 71.621782,179.2222 71.619829,179.31595 71.615929,179.44095 L 66.975304,179.44095 C 67.014365,180.12454 67.207724,180.64798 67.555382,181.01126 C 67.903036,181.37454 68.336629,181.55618 68.856163,181.55618 C 69.242878,181.55618 69.572956,181.45462 69.846397,181.2515 C 70.11983,181.04837 70.336627,180.72415 70.496788,180.27884 L 70.496788,180.27884 z M 67.033897,178.57376 L 70.508507,178.57376 C 70.461627,178.05033 70.328814,177.65775 70.110069,177.39603 C 69.774127,176.98978 69.338581,176.78666 68.803429,176.78665 C 68.319051,176.78666 67.911825,176.94877 67.581749,177.27298 C 67.251669,177.5972 67.069052,178.0308 67.033897,178.57376 L 67.033897,178.57376 z" id="text2539"/>
  <g id="g1030" transform="matrix(0.694955,0.000000,0.000000,0.574750,0.487138,47.30825)">
    <path d="M -32.385689 -23.926258 A 21.692299 12.221014 0 1 0 -75.770287,-23.926258 A 21.692299 12.221014 0 1 0 -32.385689 -23.926258 z" id="path1031" sodipodi:cx="-54.077988" sodipodi:cy="-23.926258" sodipodi:rx="21.692299" sodipodi:ry="12.221014" sodipodi:type="arc" style="fill-rule:evenodd;stroke-width:1.0000000pt;" transform="matrix(1.141421,0.000000,0.000000,1.141421,122.7349,153.3442)"/>
    <path d="M -36.663040 -17.815750 A 17.720470 15.276267 0 1 0 -72.103981,-17.815750 A 17.720470 15.276267 0 1 0 -36.663040 -17.815750 z" id="path1032" sodipodi:cx="-54.383511" sodipodi:cy="-17.815750" sodipodi:rx="17.720470" sodipodi:ry="15.276267" sodipodi:type="arc" style="fill:url(#linearGradient957);fill-opacity:1;fill-rule:evenodd;stroke-width:1.0000000pt;" transform="matrix(1.203469,0.000000,0.000000,0.798995,126.5113,139.9203)"/>
    <path d="M -35.687500,-153.67716 L -35.687500,-150.20841 L -35.687500,-25.156250 L -30.312500,-25.156250 L -30.312500,-146.55216 C -27.258420,-145.60446 -22.760805,-144.06011 -18.031250,-141.42716 C -14.539756,-139.48344 -11.569043,-137.09949 -10.312500,-134.92716 C -9.0559575,-132.75483 -8.8763524,-131.08993 -11.281250,-128.05216 C -17.618541,-120.04716 -18.188663,-111.24431 -16.500000,-104.48966 C -15.655668,-101.11233 -14.280636,-98.220012 -12.750000,-95.989656 C -11.219364,-93.759300 -9.8138840,-92.065945 -7.4687500,-91.395906 C -7.4687500,-91.395906 -13.617086,-101.85515 -13.419927,-108.24636 C -13.222769,-114.63757 -12.335172,-118.04819 -7.0625000,-124.70841 C -3.6624160,-129.00325 -3.5329184,-133.94382 -5.6562500,-137.61466 C -7.7795816,-141.28550 -11.488754,-143.96504 -15.406250,-146.14591 C -23.241242,-150.50766 -32.312500,-152.80216 -32.312500,-152.80216 L -35.687500,-153.67716 z " id="path1033" sodipodi:nodetypes="ccccccccccczccccc" style="fill-rule:evenodd;stroke-width:5.3750000;" transform="translate(116.0996,150.8247)"/>
  </g>
  <g id="g970" style="fill:none;stroke:url(#linearGradient911);">
    <path d="M 22.725919,125.29415 C 22.725919,125.29415 59.703685,106.03490 81.274048,124.52378 C 102.84441,143.01267 149.83698,132.99785 149.83698,132.99785" id="path970" style="fill:none;fill-opacity:0.75000000;fill-rule:evenodd;stroke:url(#linearGradient911);stroke-width:1.0000000pt;stroke-opacity:0.37735847;"/>
    <path d="M 20.029623,109.15557 C 20.029623,109.15557 57.007389,89.896320 78.577752,108.38520 C 100.14811,126.87409 147.14069,116.85927 147.14069,116.85927" id="path966" style="fill:none;fill-opacity:0.75000000;fill-rule:evenodd;stroke:url(#linearGradient911);stroke-width:1.0000000pt;stroke-opacity:0.37735847;"/>
    <path d="M 22.725919,90.627491 C 22.725919,90.627491 59.703685,71.368242 81.274048,89.857121 C 102.84441,108.34601 149.83699,98.331189 149.83699,98.331189" id="path967" style="fill:none;fill-opacity:0.75000000;fill-rule:evenodd;stroke:url(#linearGradient911);stroke-width:1.0000000pt;stroke-opacity:0.37735847;"/>
    <path d="M 20.414808,73.679350 C 20.414808,73.679350 57.392574,54.420101 78.962937,72.908980 C 100.53330,91.397870 147.52588,81.383050 147.52588,81.383050" id="path968" style="fill:none;fill-opacity:0.75000000;fill-rule:evenodd;stroke:url(#linearGradient911);stroke-width:1.0000000pt;stroke-opacity:0.37735847;"/>
  </g>
  <g id="g961" transform="matrix(0.919217,0.000000,0.000000,0.919217,25.44833,1.117671)">
    <g id="g2545" transform="matrix(0.592309,0.000000,0.000000,0.592309,34.27521,36.18875)">
      <path d="M -32.385689 -23.926258 A 21.692299 12.221014 0 1 0 -75.770287,-23.926258 A 21.692299 12.221014 0 1 0 -32.385689 -23.926258 z" id="path2873" sodipodi:cx="-54.077988" sodipodi:cy="-23.926258" sodipodi:rx="21.692299" sodipodi:ry="12.221014" sodipodi:type="arc" style="fill-rule:evenodd;stroke-width:1.0000000pt;" transform="matrix(1.141421,0.000000,0.000000,1.141421,122.7349,153.3442)"/>
      <path d="M -36.663040 -17.815750 A 17.720470 15.276267 0 1 0 -72.103981,-17.815750 A 17.720470 15.276267 0 1 0 -36.663040 -17.815750 z" id="path2875" sodipodi:cx="-54.383511" sodipodi:cy="-17.815750" sodipodi:rx="17.720470" sodipodi:ry="15.276267" sodipodi:type="arc" style="fill:url(#linearGradient957);fill-opacity:1;fill-rule:evenodd;stroke-width:1.0000000pt;" transform="matrix(1.203469,0.000000,0.000000,0.798995,126.5113,139.9203)"/>
      <path d="M -35.687500,-125.78125 L -35.687500,-122.31250 L -35.687500,-25.156250 L -30.312500,-25.156250 L -30.312500,-118.65625 C -27.258420,-117.70855 18.624735,-107.42725 23.354290,-104.79430 C 26.845784,-102.85058 30.356625,-111.47074 26.439129,-113.65161 C 18.604137,-118.01336 -32.312500,-124.90625 -32.312500,-124.90625 L -35.687500,-125.78125 z " id="path2877" sodipodi:nodetypes="ccccccccc" style="fill-rule:evenodd;stroke-width:5.3750000;" transform="translate(116.0996,150.8247)"/>
    </g>
    <g id="g957" transform="matrix(0.649180,0.000000,0.000000,0.649180,64.14306,41.06576)">
      <path d="M -32.385689 -23.926258 A 21.692299 12.221014 0 1 0 -75.770287,-23.926258 A 21.692299 12.221014 0 1 0 -32.385689 -23.926258 z" id="path958" sodipodi:cx="-54.077988" sodipodi:cy="-23.926258" sodipodi:rx="21.692299" sodipodi:ry="12.221014" sodipodi:type="arc" style="fill-rule:evenodd;stroke-width:1.0000000pt;" transform="matrix(1.141421,0.000000,0.000000,1.141421,122.7349,153.3442)"/>
      <path d="M -36.663040 -17.815750 A 17.720470 15.276267 0 1 0 -72.103981,-17.815750 A 17.720470 15.276267 0 1 0 -36.663040 -17.815750 z" id="path959" sodipodi:cx="-54.383511" sodipodi:cy="-17.815750" sodipodi:rx="17.720470" sodipodi:ry="15.276267" sodipodi:type="arc" style="fill:url(#linearGradient957);fill-opacity:1;fill-rule:evenodd;stroke-width:1.0000000pt;" transform="matrix(1.203469,0.000000,0.000000,0.798995,126.5113,139.9203)"/>
      <path d="M -35.687500,-125.78125 L -35.687500,-122.31250 L -35.687500,-25.156250 L -30.312500,-25.156250 L -30.312500,-118.65625 C -29.928454,-122.45528 -30.235807,-124.16457 -32.312500,-124.90625 L -35.687500,-125.78125 z " id="path960" sodipodi:nodetypes="ccccccc" style="fill-rule:evenodd;stroke-width:5.3750000;" transform="translate(116.0996,150.8247)"/>
    </g>
  </g>
</svg>