<?xml version="1.0" encoding="UTF-8" standalone="no"?>
<!-- Created with Inkscape (http://www.inkscape.org/) -->
<svg xmlns:svg="http://www.w3.org/2000/svg" xmlns="http://www.w3.org/2000/svg" version="1.0" width="16.889999" height="44.57" id="svg2208">
  <defs id="defs2210"/>
  <g transform="translate(-478.983,-150.36214)" id="layer1">
    <path d="M 487.9124,150.92254 C 486.9782,151.10434 486.26,151.75234 485.9432,152.64514 C 485.8658,152.93314 485.8658,153.00334 485.8658,153.39754 C 485.8658,153.78994 485.8658,153.93754 485.9432,154.14994 C 486.1898,154.94374 486.6956,155.54854 487.484,155.90674 C 488.0528,156.19474 488.2706,156.23074 489.059,156.23074 C 489.6008,156.23074 489.8114,156.23074 490.247,156.16054 C 490.8158,156.05434 491.6042,155.83654 492.2162,155.62594 L 492.6104,155.47834 L 492.5744,155.62594 C 492.5402,155.69614 492.2864,156.94714 491.9624,158.38174 C 491.3936,160.89274 491.3576,161.04034 491.1758,161.36254 C 490.7816,162.18514 490.2128,162.97354 489.8114,163.22734 C 489.6008,163.36774 489.4172,163.36774 489.1706,163.26154 C 488.8484,163.08514 488.735,162.90334 488.5244,161.93314 C 488.3408,161.21494 488.2004,160.82254 487.9124,160.53274 C 487.16,159.71014 485.8658,159.60574 484.8614,160.25194 C 484.397,160.56874 484.0388,161.07454 483.8282,161.60914 C 483.7508,161.89714 483.7508,161.96734 483.7508,162.36154 C 483.7508,162.90334 483.785,163.19134 484.0388,163.61974 C 484.397,164.33794 485.1494,164.91394 486.0152,165.12454 C 486.4076,165.23794 487.4138,165.23794 488.096,165.12454 C 488.6648,165.02014 489.347,164.83654 490.0292,164.62594 C 490.3532,164.51974 490.571,164.44234 490.6052,164.44234 C 490.6052,164.47834 489.383,169.86394 489.3128,170.04034 C 489.0932,170.50474 488.5244,171.40474 488.096,171.86734 C 487.6244,172.29754 487.4138,172.37494 487.0196,172.22734 C 486.6956,172.05094 486.584,171.86734 486.3734,170.89714 C 486.1898,170.18074 486.0494,169.78654 485.7614,169.50574 C 485.009,168.67594 483.7148,168.56974 482.7104,169.21774 C 482.246,169.53994 481.8878,170.04034 481.6682,170.58214 C 481.598,170.86294 481.598,170.94034 481.598,171.33274 C 481.598,171.86734 481.634,172.15714 481.8878,172.58554 C 482.246,173.30194 482.9984,173.87974 483.8624,174.09034 C 484.7912,174.34234 486.3374,174.13174 488.096,173.55574 C 488.3408,173.44954 488.5946,173.37214 488.5946,173.37214 C 488.5946,173.41534 488.3066,174.59614 487.9826,176.06494 C 487.448,178.57594 487.4138,178.75774 487.2302,179.07454 C 486.9422,179.68654 486.3032,180.55234 485.8658,180.94474 C 485.5076,181.26874 485.2628,181.33894 484.9028,181.19134 C 484.5806,181.01494 484.4672,180.83314 484.2566,179.87014 C 484.073,179.15194 483.9326,178.75774 483.6446,178.46974 C 482.8922,177.63994 481.598,177.53554 480.5936,178.18174 C 480.1292,178.50574 479.771,179.00434 479.5604,179.54614 C 479.483,179.83414 479.483,179.90434 479.483,180.29854 C 479.483,180.83314 479.5172,181.12114 479.771,181.54954 C 480.1292,182.26774 480.8816,182.84374 481.7456,183.06154 C 482.6744,183.30814 484.4672,183.06154 486.2258,182.44954 C 486.4436,182.37934 486.584,182.34514 486.584,182.34514 C 486.584,182.37934 484.073,193.63654 483.9686,193.99474 C 483.9686,194.07214 484.0028,194.10814 484.1432,194.17834 C 484.3628,194.31874 484.721,194.43214 484.973,194.43214 C 485.2196,194.43214 485.5778,194.31874 485.7956,194.17834 C 485.9432,194.10814 485.9792,194.07214 486.0152,193.89034 C 486.0152,193.78414 487.9124,184.34854 490.247,172.90774 C 493.9388,154.47214 494.4032,152.11054 494.3672,152.03314 C 494.2628,151.85674 494.1206,151.78654 493.9028,151.78654 C 493.5806,151.78654 493.5104,151.85674 493.1864,152.46874 C 492.722,153.36154 492.2504,154.00774 491.9282,154.26154 C 491.7518,154.40194 491.5682,154.40194 491.2874,154.29754 C 490.9652,154.11394 490.8518,153.93754 490.6412,152.96734 C 490.4234,151.99714 490.1696,151.56874 489.635,151.21054 C 489.1292,150.88654 488.4902,150.78214 487.9124,150.92254 z " style="fill:#000000;fill-rule:evenodd;stroke:#000000;stroke-width:0;stroke-linecap:butt;stroke-linejoin:round;stroke-miterlimit:10" id="path110"/>
  </g>
</svg>