<?xml version="1.0" encoding="UTF-8" standalone="no"?>
<!-- Created with Inkscape (http://www.inkscape.org/) -->
<svg xmlns:dc="http://purl.org/dc/elements/1.1/" xmlns:cc="http://creativecommons.org/ns#" xmlns:rdf="http://www.w3.org/1999/02/22-rdf-syntax-ns#" xmlns:svg="http://www.w3.org/2000/svg" xmlns="http://www.w3.org/2000/svg" xmlns:xlink="http://www.w3.org/1999/xlink" xmlns:sodipodi="http://sodipodi.sourceforge.net/DTD/sodipodi-0.dtd" xmlns:inkscape="http://www.inkscape.org/namespaces/inkscape" width="120.00001" height="120.10718" id="svg5609" version="1.1" inkscape:version="0.48.1 r9760" sodipodi:docname="New document 23">
  <defs id="defs5611">
    <filter inkscape:collect="always" id="filter4049" color-interpolation-filters="sRGB">
      <feGaussianBlur inkscape:collect="always" stdDeviation="2.9886041" id="feGaussianBlur4051"/>
    </filter>
    <linearGradient inkscape:collect="always" xlink:href="#linearGradient3797" id="linearGradient5022" gradientUnits="userSpaceOnUse" gradientTransform="matrix(0.53065927,0,0,1.0876633,-239.47565,386.98416)" x1="693.75287" y1="441.75574" x2="692.45367" y2="258.57379"/>
    <linearGradient inkscape:collect="always" id="linearGradient3797">
      <stop style="stop-color:#002b00;stop-opacity:1" offset="0" id="stop3799"/>
      <stop style="stop-color:#00aa00;stop-opacity:1" offset="1" id="stop3801"/>
    </linearGradient>
  </defs>
  <sodipodi:namedview id="base" pagecolor="#ffffff" bordercolor="#666666" borderopacity="1.0" inkscape:pageopacity="0.0" inkscape:pageshadow="2" inkscape:zoom="0.76972656" inkscape:cx="35.258621" inkscape:cy="-15.955911" inkscape:document-units="px" inkscape:current-layer="layer1" showgrid="false" fit-margin-top="0" fit-margin-left="0" fit-margin-right="0" fit-margin-bottom="0" inkscape:window-width="1280" inkscape:window-height="749" inkscape:window-x="0" inkscape:window-y="0" inkscape:window-maximized="1"/>
  <metadata id="metadata5614">
    <rdf:RDF>
      <cc:Work rdf:about="">
        <dc:format>image/svg+xml</dc:format>
        <dc:type rdf:resource="http://purl.org/dc/dcmitype/StillImage"/>
        <dc:title/>
      </cc:Work>
    </rdf:RDF>
  </metadata>
  <g inkscape:label="Layer 1" inkscape:groupmode="layer" id="layer1" transform="translate(-339.74138,-396.29909)">
    <g id="g5006" transform="matrix(0.55984436,0,0,0.56034436,331.37039,26.095767)">
      <rect ry="16.889114" y="668.2254" x="22.501171" height="199.24028" width="199.24026" id="rect4365" style="fill:#1f241c;fill-opacity:1;fill-rule:evenodd;stroke:#ffffff;stroke-width:0.75972277;stroke-linecap:butt;stroke-linejoin:miter;stroke-miterlimit:4;stroke-opacity:1;stroke-dasharray:none;stroke-dashoffset:0;filter:url(#filter4049)"/>
      <rect style="fill:url(#linearGradient5022);fill-opacity:1;fill-rule:evenodd;stroke:none" id="rect4367" width="199.24026" height="199.24028" x="22.501171" y="668.2254" ry="16.889114"/>
      <rect style="fill:#d7f4d7;fill-opacity:1;fill-rule:evenodd;stroke:none" id="rect4369" width="198.88438" height="5.5363946" x="22.446636" y="682.30109"/>
      <g id="g4371" transform="matrix(1.5472438,0,0,1.5472438,-462.70073,242.20071)" style="stroke:#ffffff">
        <path transform="translate(103.20033,-77.985646)" d="m 328.27353,476.68796 c 0,1.63124 -1.32238,2.95362 -2.95361,2.95362 -1.63124,0 -2.95362,-1.32238 -2.95362,-2.95362 0,-1.63124 1.32238,-2.95362 2.95362,-2.95362 1.63123,0 2.95361,1.32238 2.95361,2.95362 z" sodipodi:ry="2.953618" sodipodi:rx="2.953618" sodipodi:cy="476.68796" sodipodi:cx="325.31992" id="path4373" style="opacity:0.54368932;fill:none;stroke:#ffffff;stroke-width:1;stroke-linecap:butt;stroke-linejoin:miter;stroke-miterlimit:4;stroke-opacity:1;stroke-dasharray:none;stroke-dashoffset:0" sodipodi:type="arc"/>
        <path sodipodi:type="arc" style="opacity:0.54368932;fill:none;stroke:#ffffff;stroke-width:1;stroke-linecap:butt;stroke-linejoin:miter;stroke-miterlimit:4;stroke-opacity:1;stroke-dasharray:none;stroke-dashoffset:0" id="path4375" sodipodi:cx="325.31992" sodipodi:cy="476.68796" sodipodi:rx="2.953618" sodipodi:ry="2.953618" d="m 328.27353,476.68796 c 0,1.63124 -1.32238,2.95362 -2.95361,2.95362 -1.63124,0 -2.95362,-1.32238 -2.95362,-2.95362 0,-1.63124 1.32238,-2.95362 2.95362,-2.95362 1.63123,0 2.95361,1.32238 2.95361,2.95362 z" transform="matrix(0.7556502,0,0,0.7556502,188.37997,24.115885)"/>
        <path transform="matrix(0.5113004,0,0,0.5113004,270.68479,132.68725)" d="m 328.27353,476.68796 c 0,1.63124 -1.32238,2.95362 -2.95361,2.95362 -1.63124,0 -2.95362,-1.32238 -2.95362,-2.95362 0,-1.63124 1.32238,-2.95362 2.95362,-2.95362 1.63123,0 2.95361,1.32238 2.95361,2.95362 z" sodipodi:ry="2.953618" sodipodi:rx="2.953618" sodipodi:cy="476.68796" sodipodi:cx="325.31992" id="path4377" style="opacity:0.54368932;fill:none;stroke:#ffffff;stroke-width:1;stroke-linecap:butt;stroke-linejoin:miter;stroke-miterlimit:4;stroke-opacity:1;stroke-dasharray:none;stroke-dashoffset:0" sodipodi:type="arc"/>
        <path sodipodi:type="arc" style="opacity:0.54368932;fill:none;stroke:#ffffff;stroke-width:1;stroke-linecap:butt;stroke-linejoin:miter;stroke-miterlimit:4;stroke-opacity:1;stroke-dasharray:none;stroke-dashoffset:0" id="path4379" sodipodi:cx="325.31992" sodipodi:cy="476.68796" sodipodi:rx="2.953618" sodipodi:ry="2.953618" d="m 328.27353,476.68796 c 0,1.63124 -1.32238,2.95362 -2.95361,2.95362 -1.63124,0 -2.95362,-1.32238 -2.95362,-2.95362 0,-1.63124 1.32238,-2.95362 2.95362,-2.95362 1.63123,0 2.95361,1.32238 2.95361,2.95362 z" transform="translate(111.70108,-84.736773)"/>
      </g>
      <g transform="matrix(-1.5472438,0,0,1.5472438,707.26184,240.99615)" id="g4381">
        <path sodipodi:type="arc" style="opacity:0.54368932;fill:none;stroke:#ffffff;stroke-width:1;stroke-linecap:butt;stroke-linejoin:miter;stroke-miterlimit:4;stroke-opacity:1;stroke-dasharray:none;stroke-dashoffset:0" id="path4383" sodipodi:cx="325.31992" sodipodi:cy="476.68796" sodipodi:rx="2.953618" sodipodi:ry="2.953618" d="m 328.27353,476.68796 c 0,1.63124 -1.32238,2.95362 -2.95361,2.95362 -1.63124,0 -2.95362,-1.32238 -2.95362,-2.95362 0,-1.63124 1.32238,-2.95362 2.95362,-2.95362 1.63123,0 2.95361,1.32238 2.95361,2.95362 z" transform="translate(103.20033,-77.985646)"/>
        <path transform="matrix(0.7556502,0,0,0.7556502,188.37997,24.115885)" d="m 328.27353,476.68796 c 0,1.63124 -1.32238,2.95362 -2.95361,2.95362 -1.63124,0 -2.95362,-1.32238 -2.95362,-2.95362 0,-1.63124 1.32238,-2.95362 2.95362,-2.95362 1.63123,0 2.95361,1.32238 2.95361,2.95362 z" sodipodi:ry="2.953618" sodipodi:rx="2.953618" sodipodi:cy="476.68796" sodipodi:cx="325.31992" id="path4385" style="opacity:0.54368932;fill:none;stroke:#ffffff;stroke-width:1;stroke-linecap:butt;stroke-linejoin:miter;stroke-miterlimit:4;stroke-opacity:1;stroke-dasharray:none;stroke-dashoffset:0" sodipodi:type="arc"/>
        <path sodipodi:type="arc" style="opacity:0.54368932;fill:none;stroke:#ffffff;stroke-width:1;stroke-linecap:butt;stroke-linejoin:miter;stroke-miterlimit:4;stroke-opacity:1;stroke-dasharray:none;stroke-dashoffset:0" id="path4387" sodipodi:cx="325.31992" sodipodi:cy="476.68796" sodipodi:rx="2.953618" sodipodi:ry="2.953618" d="m 328.27353,476.68796 c 0,1.63124 -1.32238,2.95362 -2.95361,2.95362 -1.63124,0 -2.95362,-1.32238 -2.95362,-2.95362 0,-1.63124 1.32238,-2.95362 2.95362,-2.95362 1.63123,0 2.95361,1.32238 2.95361,2.95362 z" transform="matrix(0.5113004,0,0,0.5113004,270.68479,132.68725)"/>
        <path transform="translate(111.70108,-84.736773)" d="m 328.27353,476.68796 c 0,1.63124 -1.32238,2.95362 -2.95361,2.95362 -1.63124,0 -2.95362,-1.32238 -2.95362,-2.95362 0,-1.63124 1.32238,-2.95362 2.95362,-2.95362 1.63123,0 2.95361,1.32238 2.95361,2.95362 z" sodipodi:ry="2.953618" sodipodi:rx="2.953618" sodipodi:cy="476.68796" sodipodi:cx="325.31992" id="path4389" style="opacity:0.54368932;fill:none;stroke:#ffffff;stroke-width:1;stroke-linecap:butt;stroke-linejoin:miter;stroke-miterlimit:4;stroke-opacity:1;stroke-dasharray:none;stroke-dashoffset:0" sodipodi:type="arc"/>
      </g>
      <rect style="fill:#ffffff;fill-opacity:1;fill-rule:evenodd;stroke:none" id="rect4391" width="90.941383" height="96.138039" x="76.650612" y="719.77655"/>
    </g>
  </g>
</svg>