<?xml version="1.0" encoding="UTF-8" standalone="no"?>
<!-- Created with Inkscape (http://www.inkscape.org/) -->

<svg
   xmlns:dc="http://purl.org/dc/elements/1.1/"
   xmlns:cc="http://creativecommons.org/ns#"
   xmlns:rdf="http://www.w3.org/1999/02/22-rdf-syntax-ns#"
   xmlns:svg="http://www.w3.org/2000/svg"
   xmlns="http://www.w3.org/2000/svg"
   xmlns:xlink="http://www.w3.org/1999/xlink"
   xmlns:sodipodi="http://sodipodi.sourceforge.net/DTD/sodipodi-0.dtd"
   xmlns:inkscape="http://www.inkscape.org/namespaces/inkscape"
   width="165"
   height="165"
   id="svg2"
   version="1.1"
   inkscape:version="0.92.5 (2060ec1f9f, 2020-04-08)"
   sodipodi:docname="tabliato.svg">
  <defs
     id="defs4">
    <linearGradient
       id="linearGradient3820">
      <stop
         style="stop-color:#efbe4f;stop-opacity:1;"
         offset="0"
         id="stop3822" />
      <stop
         id="stop3832"
         offset="1"
         style="stop-color:#fbf2da;stop-opacity:1" />
    </linearGradient>
    <linearGradient
       id="linearGradient3808">
      <stop
         style="stop-color:#f6dea9;stop-opacity:1;"
         offset="0"
         id="stop3810" />
      <stop
         style="stop-color:#f6dea9;stop-opacity:0;"
         offset="1"
         id="stop3812" />
    </linearGradient>
    <marker
       inkscape:stockid="DotM"
       orient="auto"
       refY="0.0"
       refX="0.0"
       id="DotM"
       style="overflow:visible">
      <path
         id="path3933"
         d="M -2.5,-1.0 C -2.5,1.7600000 -4.7400000,4.0 -7.5,4.0 C -10.260000,4.0 -12.5,1.7600000 -12.5,-1.0 C -12.5,-3.7600000 -10.260000,-6.0 -7.5,-6.0 C -4.7400000,-6.0 -2.5,-3.7600000 -2.5,-1.0 z "
         style="fill-rule:evenodd;stroke:#000000;stroke-width:1.0pt"
         transform="scale(0.4) translate(7.4, 1)" />
    </marker>
    <linearGradient
       inkscape:collect="always"
       xlink:href="#linearGradient3820-1"
       id="linearGradient3868-6"
       x1="379.93466"
       y1="509.81497"
       x2="300.0715"
       y2="372.43423"
       gradientUnits="userSpaceOnUse" />
    <linearGradient
       id="linearGradient3820-1">
      <stop
         style="stop-color:#efbe4f;stop-opacity:1;"
         offset="0"
         id="stop3822-2" />
      <stop
         id="stop3832-8"
         offset="1"
         style="stop-color:#fbf2da;stop-opacity:1" />
    </linearGradient>
    <linearGradient
       gradientTransform="translate(1.6577172,-1.662206)"
       y2="372.43423"
       x2="300.0715"
       y1="509.81497"
       x1="379.93466"
       gradientUnits="userSpaceOnUse"
       id="linearGradient9837"
       xlink:href="#linearGradient3820-1"
       inkscape:collect="always" />
    <filter
       id="filter9954"
       inkscape:label="Rough and glossy"
       inkscape:menu="Textures"
       inkscape:menu-tooltip="Crumpled glossy paper effect which can be used for pictures as for objects"
       color-interpolation-filters="sRGB">
      <feTurbulence
         id="feTurbulence9956"
         type="fractalNoise"
         numOctaves="7"
         baseFrequency="0.02"
         seed="55"
         result="result0" />
      <feDiffuseLighting
         id="feDiffuseLighting9958"
         surfaceScale="4"
         diffuseConstant="1"
         kernelUnitLength="1"
         result="result1"
         in="result0">
        <feDistantLight
           id="feDistantLight9960"
           azimuth="235"
           elevation="60" />
      </feDiffuseLighting>
      <feSpecularLighting
         id="feSpecularLighting9962"
         in="result0"
         surfaceScale="3"
         specularConstant="1"
         specularExponent="25"
         kernelUnitLength="1"
         result="result3">
        <feDistantLight
           id="feDistantLight9964"
           azimuth="235"
           elevation="55" />
      </feSpecularLighting>
      <feComposite
         id="feComposite9966"
         in2="SourceGraphic"
         in="result1"
         operator="arithmetic"
         k1="1"
         result="result2" />
      <feComposite
         id="feComposite9968"
         in2="result3"
         in="result2"
         operator="arithmetic"
         k2="1"
         k3="1"
         result="result4" />
      <feComposite
         id="feComposite9970"
         in2="SourceAlpha"
         operator="in"
         in="result4"
         result="fbSourceGraphic" />
      <feDisplacementMap
         id="feDisplacementMap9972"
         in2="result0"
         scale="7"
         yChannelSelector="G"
         xChannelSelector="R" />
    </filter>
    <linearGradient
       inkscape:collect="always"
       xlink:href="#linearGradient3820-1"
       id="linearGradient3882"
       x1="248.97931"
       y1="439.20984"
       x2="413.88669"
       y2="439.20984"
       gradientUnits="userSpaceOnUse"
       gradientTransform="translate(167.5,-1.7857143)" />
    <linearGradient
       inkscape:collect="always"
       xlink:href="#linearGradient3820-1-7"
       id="linearGradient3914"
       gradientUnits="userSpaceOnUse"
       gradientTransform="translate(1.6577172,-1.662206)"
       x1="379.93466"
       y1="509.81497"
       x2="300.0715"
       y2="372.43423" />
    <linearGradient
       id="linearGradient3820-1-7">
      <stop
         style="stop-color:#efbe4f;stop-opacity:1;"
         offset="0"
         id="stop3822-2-7" />
      <stop
         id="stop3832-8-4"
         offset="1"
         style="stop-color:#fbf2da;stop-opacity:1" />
    </linearGradient>
    <clipPath
       clipPathUnits="userSpaceOnUse"
       id="clipPath3908">
      <rect
         style="opacity:0.33333333;fill:url(#linearGradient3912);fill-opacity:1;stroke:none"
         id="rect3910"
         width="158.02458"
         height="156.23036"
         x="255.58934"
         y="359.56503"
         ry="17.677443"
         rx="18.101889" />
    </clipPath>
    <filter
       id="filter9954-5"
       inkscape:label="Rough and glossy"
       inkscape:menu="Textures"
       inkscape:menu-tooltip="Crumpled glossy paper effect which can be used for pictures as for objects"
       color-interpolation-filters="sRGB">
      <feTurbulence
         id="feTurbulence9956-9"
         type="fractalNoise"
         numOctaves="7"
         baseFrequency="0.02"
         seed="55"
         result="result0" />
      <feDiffuseLighting
         id="feDiffuseLighting9958-3"
         surfaceScale="4"
         diffuseConstant="1"
         kernelUnitLength="1"
         result="result1"
         in="result0">
        <feDistantLight
           id="feDistantLight9960-9"
           azimuth="235"
           elevation="60" />
      </feDiffuseLighting>
      <feSpecularLighting
         id="feSpecularLighting9962-6"
         in="result0"
         surfaceScale="3"
         specularConstant="1"
         specularExponent="25"
         kernelUnitLength="1"
         result="result3">
        <feDistantLight
           id="feDistantLight9964-8"
           azimuth="235"
           elevation="55" />
      </feSpecularLighting>
      <feComposite
         k4="0"
         k3="0"
         k2="0"
         id="feComposite9966-7"
         in2="SourceGraphic"
         in="result1"
         operator="arithmetic"
         k1="1"
         result="result2" />
      <feComposite
         k4="0"
         k1="0"
         id="feComposite9968-8"
         in2="result3"
         in="result2"
         operator="arithmetic"
         k2="1"
         k3="1"
         result="result4" />
      <feComposite
         id="feComposite9970-6"
         in2="SourceAlpha"
         operator="in"
         in="result4"
         result="fbSourceGraphic" />
      <feDisplacementMap
         id="feDisplacementMap9972-3"
         in2="result0"
         scale="7"
         yChannelSelector="G"
         xChannelSelector="R" />
    </filter>
    <linearGradient
       y2="372.43423"
       x2="300.0715"
       y1="509.81497"
       x1="379.93466"
       gradientTransform="translate(1.6577172,-1.662206)"
       gradientUnits="userSpaceOnUse"
       id="linearGradient3943"
       xlink:href="#linearGradient3820-1-7"
       inkscape:collect="always" />
    <linearGradient
       inkscape:collect="always"
       xlink:href="#linearGradient3820-1"
       id="linearGradient4029"
       gradientUnits="userSpaceOnUse"
       gradientTransform="translate(0.53571411,0.89285713)"
       x1="273.97931"
       y1="379.92413"
       x2="429.14795"
       y2="537.96204" />
  </defs>
  <sodipodi:namedview
     id="base"
     pagecolor="#ffffff"
     bordercolor="#666666"
     borderopacity="1.0"
     inkscape:pageopacity="0.0"
     inkscape:pageshadow="2"
     inkscape:zoom="3.959798"
     inkscape:cx="70.052996"
     inkscape:cy="62.091536"
     inkscape:document-units="px"
     inkscape:current-layer="layer1"
     showgrid="false"
     borderlayer="false"
     fit-margin-top="0"
     fit-margin-left="0"
     fit-margin-right="0"
     fit-margin-bottom="0"
     inkscape:window-width="1920"
     inkscape:window-height="1145"
     inkscape:window-x="1920"
     inkscape:window-y="0"
     inkscape:window-maximized="1" />
  <metadata
     id="metadata7">
    <rdf:RDF>
      <cc:Work
         rdf:about="">
        <dc:format>image/svg+xml</dc:format>
        <dc:type
           rdf:resource="http://purl.org/dc/dcmitype/StillImage" />
        <dc:title />
      </cc:Work>
    </rdf:RDF>
  </metadata>
  <g
     inkscape:label="Calque 1"
     inkscape:groupmode="layer"
     id="layer1"
     transform="translate(-249.23185,-356.78983)">
    <rect
       style="opacity:0.81568627;fill:url(#linearGradient4029);fill-opacity:1;stroke:none"
       id="rect3100"
       width="164.90739"
       height="165.15994"
       x="249.51503"
       y="357.52274"
       ry="18.687822"
       rx="18.890322" />
    <g
       id="g9228"
       transform="translate(-0.52674062,1.284355)">
      <path
         inkscape:connector-curvature="0"
         id="path3045-8-8"
         d="m 387.98783,448.71955 c 0.21708,-3.17044 4.26358,-3.77551 4.48858,-0.67117 0.10076,1.38983 -0.65018,2.25809 -2.25273,2.60482 -2.00023,0.43273 -2.37564,0.10808 -2.23585,-1.93365 z"
         style="fill:#000000;fill-opacity:1" />
      <path
         inkscape:connector-curvature="0"
         id="path3067"
         d="m 315.54546,511.3593 c -0.72491,-0.51611 -14.09841,-7.66027 -29.71887,-15.87587 -36.71196,-19.30866 -35.41269,-18.53814 -34.63856,-20.54161 1.25268,-3.24184 13.92882,-18.34259 14.62564,-17.42311 1.09401,1.44363 -0.90093,5.64013 -5.83959,12.28404 -2.74408,3.69157 -4.22556,6.42831 -3.79055,7.00234 0.39279,0.51827 8.77208,5.16495 18.6207,10.32598 9.84862,5.161 24.95934,13.10463 33.57939,17.65248 8.62007,4.54789 16.23783,8.16321 16.92838,8.03409 0.70716,-0.13223 0.83215,0.28164 0.28631,0.94722 -0.93613,1.14154 -7.16402,-0.34872 -10.05285,-2.40556 z"
         style="fill:#000000;fill-opacity:1" />
      <path
         id="path3049-2"
         d="m 265.17048,476.21967 c -0.37653,-2.01369 2.60321,-3.00465 3.42839,-1.14018 0.69025,1.55959 -0.81735,3.36714 -2.32312,2.78533 -0.47276,-0.18305 -0.97025,-0.92305 -1.10527,-1.64515 z"
         style="fill:#000000;fill-opacity:1"
         inkscape:connector-curvature="0" />
      <path
         id="path3049-0"
         d="m 273.36744,481.36762 c -0.37652,-2.0137 2.60321,-3.00465 3.4284,-1.14018 0.69025,1.55959 -0.81735,3.36712 -2.32311,2.78531 -0.47277,-0.18304 -0.97028,-0.92303 -1.10529,-1.64513 z"
         style="fill:#000000;fill-opacity:1"
         inkscape:connector-curvature="0" />
      <path
         id="path3049-8"
         d="m 283.38285,486.93527 c -0.37652,-2.01368 2.60321,-3.00465 3.4284,-1.14018 0.69026,1.55959 -0.81735,3.36713 -2.32311,2.7853 -0.47276,-0.18304 -0.97026,-0.92303 -1.10529,-1.64512 z"
         style="fill:#000000;fill-opacity:1"
         inkscape:connector-curvature="0" />
      <path
         id="path3049-3"
         d="m 298.0424,491.46796 c -0.37652,-2.01368 2.60322,-3.00466 3.4284,-1.14017 0.69026,1.55956 -0.81735,3.36712 -2.32312,2.7853 -0.47277,-0.18303 -0.97026,-0.92303 -1.10528,-1.64513 z"
         style="fill:#000000;fill-opacity:1"
         inkscape:connector-curvature="0" />
      <path
         id="path3049-4"
         d="m 300.91258,497.95303 c -0.37652,-2.01372 2.60321,-3.00468 3.4284,-1.1402 0.69026,1.55959 -0.81736,3.36713 -2.32312,2.7853 -0.47276,-0.18305 -0.97025,-0.92304 -1.10528,-1.6451 z"
         style="fill:#000000;fill-opacity:1"
         inkscape:connector-curvature="0" />
      <path
         id="path3049-49"
         d="m 272.60109,474.56371 c -0.37652,-2.0137 2.60321,-3.00465 3.4284,-1.14018 0.69027,1.55959 -0.81735,3.36714 -2.3231,2.7853 -0.47276,-0.18305 -0.97026,-0.92304 -1.1053,-1.64512 z"
         style="fill:#000000;fill-opacity:1"
         inkscape:connector-curvature="0" />
      <path
         id="path3049-45"
         d="m 281.15611,480.9818 c -0.37652,-2.01369 2.60322,-3.00466 3.4284,-1.14017 0.69024,1.55958 -0.81735,3.36713 -2.32311,2.78529 -0.47277,-0.18305 -0.97028,-0.92304 -1.10529,-1.64512 z"
         style="fill:#000000;fill-opacity:1"
         inkscape:connector-curvature="0" />
      <path
         id="path3049-1"
         d="m 290.13083,485.58143 c -0.37653,-2.01369 2.60321,-3.00466 3.42839,-1.14018 0.69025,1.5596 -0.81735,3.36712 -2.3231,2.78531 -0.47277,-0.18304 -0.97027,-0.92303 -1.10529,-1.64513 z"
         style="fill:#000000;fill-opacity:1"
         inkscape:connector-curvature="0" />
      <path
         id="path3049-36"
         d="m 291.52386,491.49573 c -0.37651,-2.0137 2.60323,-3.00467 3.42842,-1.14018 0.69023,1.55958 -0.81736,3.36711 -2.32312,2.78528 -0.47277,-0.18303 -0.97028,-0.92302 -1.1053,-1.6451 z"
         style="fill:#000000;fill-opacity:1"
         inkscape:connector-curvature="0" />
      <path
         id="path3049-4-2"
         d="m 306.67238,496.45229 c -0.37652,-2.01369 2.6032,-3.00465 3.42839,-1.14017 0.69024,1.55959 -0.81734,3.36712 -2.32311,2.78528 -0.47277,-0.18303 -0.97027,-0.92302 -1.10528,-1.64511 z"
         style="fill:#000000;fill-opacity:1"
         inkscape:connector-curvature="0" />
      <path
         id="path3049-4-7"
         d="m 308.88781,502.11012 c -0.37651,-2.01369 2.60321,-3.00467 3.42841,-1.14016 0.69024,1.55958 -0.81736,3.36711 -2.32313,2.78529 -0.47277,-0.18304 -0.97026,-0.92303 -1.10528,-1.64513 z"
         style="fill:#000000;fill-opacity:1"
         inkscape:connector-curvature="0" />
      <path
         sodipodi:nodetypes="cscsscssc"
         inkscape:connector-curvature="0"
         id="path3065"
         d="m 329.53174,497.35349 c 3.16471,1.80229 11.51746,-8.66807 12.41976,-7.65346 0.63063,0.70914 -6.11563,13.55189 -8.01541,13.24999 -0.47498,-0.0755 -15.64609,-7.69359 -33.71356,-16.92914 -18.06747,-9.23555 -33.39585,-17.42675 -34.06308,-18.20269 -1.49246,-1.73564 -2.06101,-13.35125 -0.81864,-17.47657 1.47995,-1.84551 9.75127,-13.05053 10.37909,-12.26466 0.76905,0.96266 -7.6442,14.54802 -7.79569,17.35323 -0.0246,0.45405 0.32421,3.50484 0.98118,4.96033"
         style="fill:#cab71a;fill-opacity:1" />
      <path
         sodipodi:nodetypes="csscssscc"
         inkscape:connector-curvature="0"
         id="path3063"
         d="m 311.59905,469.13547 c -16.21927,-11.34908 -30.32064,-21.36651 -31.33635,-22.261 -1.42988,-1.25923 -1.88051,-6.90745 -1.97799,-8.51966 -0.0986,-1.62946 -0.70679,-6.89235 0.0337,-6.89328 0.51547,-0.0284 1.19591,3.12428 1.71138,4.68641 1.45122,4.39794 3.43094,6.14405 32.16059,28.36425 16.8378,13.02279 30.84383,24.04051 31.12452,24.48379 1.98493,3.13482 -5.98506,-1.85601 -31.71588,-19.86051 z"
         style="fill:#e20000;fill-opacity:1" />
      <path
         sodipodi:nodetypes="ssscsscs"
         inkscape:connector-curvature="0"
         id="path3061"
         d="m 335.80818,475.51271 c -5.17858,-5.54531 -14.95983,-15.9011 -21.73607,-23.01283 -22.82134,-23.95122 -21.18229,-21.80339 -21.24808,-27.84377 -0.0322,-2.95329 0.45843,-5.84133 1.0332,-5.84757 0.57478,-0.007 0.40646,1.84307 1.03087,3.43575 0.87257,2.22571 5.16514,8.7879 25.9587,32.31467 14.25943,16.13374 25.9304,29.71566 25.93548,30.18204 0.0224,2.05034 -2.13731,0.23427 -10.9741,-9.22829 z"
         style="fill:#e20000;fill-opacity:1" />
      <path
         sodipodi:nodetypes="csccsscc"
         inkscape:connector-curvature="0"
         id="path3059"
         d="m 347.49456,478.00381 c -1.41711,-2.42768 -10.79334,-17.54028 -20.83601,-33.58358 -12.76962,-20.39968 -18.722,-31.26886 -18.72367,-33.38908 l 0.45978,-1.84405 2.90571,3.12071 c 2.59441,2.78635 40.65691,67.73826 40.67512,69.41023 0.022,2.015 -2.22207,0.15483 -4.48063,-3.71424 z"
         style="fill:#e20000;fill-opacity:1" />
      <path
         inkscape:connector-curvature="0"
         id="path3057"
         d="m 355.37418,478.69907 c -0.61689,-1.14146 -4.84636,-12.14681 -9.39875,-24.45636 -4.55238,-12.30958 -9.40926,-25.42583 -10.79307,-29.14725 -1.38381,-3.72141 -3.35311,-9.10873 -4.37624,-11.97181 -1.02313,-2.86306 -3.26811,-6.51714 -4.98886,-8.12015 -1.72074,-1.603 -2.93018,-3.11737 -2.68762,-3.36526 1.15173,-1.17713 9.23505,3.34327 10.20948,5.70939 2.98366,7.24504 23.83005,71.33107 23.51852,72.30075 -0.19898,0.61932 -0.86655,0.19213 -1.48346,-0.94931 z"
         style="fill:#e20000;fill-opacity:1" />
      <path
         inkscape:connector-curvature="0"
         id="path3055"
         d="m 360.86204,476.81302 c -0.22817,-0.71606 -0.7194,-3.17993 -1.09162,-5.47525 -0.37222,-2.29533 -1.63886,-9.80677 -2.81471,-16.6921 -1.17585,-6.88531 -3.68008,-21.65155 -5.56494,-32.81384 -3.29572,-19.5174 -3.55643,-20.42569 -6.80344,-23.70355 -4.0903,-4.12916 -3.09264,-4.28136 3.858,-0.58863 4.2525,2.25926 5.33072,3.39052 5.64609,5.92382 5.03264,40.42617 8.72148,74.63477 8.04894,74.64209 -0.4749,0.005 -1.05015,-0.57646 -1.27832,-1.29254 z"
         style="fill:#e20000;fill-opacity:1" />
      <path
         inkscape:connector-curvature="0"
         id="path3051"
         d="m 398.67099,474.69422 c 0.97461,-1.55753 7.33907,-45.37236 10.3521,-71.26657 0.17324,-1.48904 -1.31182,-2.30829 -6.80075,-3.75163 -7.39354,-1.94413 -12.53511,-4.20894 -10.48722,-4.61951 1.36404,-0.27345 15.72475,0.15368 18.84723,0.56059 2.96253,0.38605 2.77771,2.55272 -3.56873,41.84176 -6.78445,42.00057 -6.10487,38.7049 -8.05048,39.04093 -1.43179,0.24722 -1.46153,0.0638 -0.29208,-1.80559 z"
         style="fill:#000000;fill-opacity:1" />
      <path
         inkscape:connector-curvature="0"
         id="path3049"
         d="m 398.12498,440.72774 c -1.35786,-1.53394 0.68901,-3.91535 2.35507,-2.74001 1.39362,0.98315 1.02925,3.30853 -0.56147,3.58324 -0.49961,0.086 -1.30669,-0.2932 -1.7936,-0.84323 z"
         style="fill:#000000;fill-opacity:1" />
      <path
         inkscape:transform-center-x="-0.33286074"
         inkscape:transform-center-y="2.2692221"
         inkscape:connector-curvature="0"
         id="path3047"
         d="m 392.09737,430.28731 c -1.78487,-1.52507 -0.57782,-4.34531 1.66941,-3.90053 2.15423,0.42636 2.4753,1.75904 0.87499,3.63198 -0.90861,1.06338 -1.53657,1.12966 -2.5444,0.26855 z"
         style="fill:#000000;fill-opacity:1" />
      <path
         inkscape:connector-curvature="0"
         id="path3045"
         d="m 398.58991,429.79421 c -0.0962,-3.17641 3.87098,-4.17711 4.40066,-1.11002 0.23711,1.37314 -0.42461,2.31116 -1.98522,2.81403 -1.94787,0.62767 -2.35343,0.34157 -2.41544,-1.70401 z"
         style="fill:#000000;fill-opacity:1" />
      <path
         inkscape:connector-curvature="0"
         id="path3018"
         d="m 399.94028,420.34719 c -1.15932,-0.99058 -1.33617,-1.88045 -0.73415,-3.69472 1.15816,-3.49038 4.25261,-3.02303 4.90254,0.74039 0.59641,3.45353 -1.68867,5.07309 -4.16839,2.95433 z"
         style="fill:#000000;fill-opacity:1" />
      <path
         id="path3047-6"
         d="m 392.8058,419.87588 c -1.78489,-1.52507 -0.57781,-4.34532 1.66942,-3.90055 2.15423,0.42637 2.4753,1.75903 0.87499,3.63198 -0.9086,1.06342 -1.53659,1.12967 -2.54441,0.26857 z"
         style="fill:#000000;fill-opacity:1"
         inkscape:connector-curvature="0" />
      <path
         inkscape:connector-curvature="0"
         id="path3045-0"
         d="m 389.93607,439.01158 c -0.0962,-3.17638 3.87097,-4.1771 4.40065,-1.11002 0.23711,1.37317 -0.42459,2.31118 -1.98522,2.81406 -1.94787,0.62763 -2.35344,0.34154 -2.41543,-1.70404 z"
         style="fill:#000000;fill-opacity:1" />
      <path
         inkscape:connector-curvature="0"
         id="path3045-8"
         d="m 394.81987,449.85484 c -0.0962,-3.17639 3.87096,-4.17711 4.40064,-1.11002 0.23712,1.37315 -0.42459,2.31115 -1.9852,2.81404 -1.94788,0.62764 -2.35344,0.34154 -2.41544,-1.70402 z"
         style="fill:#000000;fill-opacity:1" />
      <path
         sodipodi:nodetypes="ccsscc"
         inkscape:connector-curvature="0"
         id="path3053"
         d="m 367.72824,401.26173 c -2.47936,-3.19336 -6.03587,-6.12448 -7.60428,-9.81346 -0.014,-1.28994 11.24242,5.77597 13.56819,8.51706 1.46576,1.72748 1.41145,2.50247 -3.56273,50.86436 -2.75097,26.74618 -2.81875,27.20519 -4.0206,27.21827 1.04497,-26.53284 3.71484,-71.37276 1.61942,-76.78623 z"
         style="fill:#e20000;fill-opacity:1" />
      <path
         sodipodi:nodetypes="sscsscssss"
         inkscape:connector-curvature="0"
         id="path3053-2"
         d="m 382.35182,460.33033 c 0.83607,-10.17457 2.25204,-27.68486 3.14661,-38.91174 l 1.62646,-20.41252 -3.07552,-3.85978 c -0.84577,-1.06144 -16.52022,-3.31675 -17.06722,-4.2349 -0.547,-0.91818 12.02097,-0.82911 14.04928,-0.83086 3.03077,0.13007 10.88467,6.42478 13.04583,9.29745 1.36201,1.81039 1.26239,2.58086 -6.53697,50.56822 -4.31339,26.53903 -4.40796,26.99317 -5.60851,26.93591 -0.75338,-0.0359 -0.621,-5.88295 0.42004,-18.55178 z"
         style="fill:#cab71a;fill-opacity:1" />
      <path
         sodipodi:nodetypes="cccccc"
         inkscape:connector-curvature="0"
         id="path4540"
         d="m 293.72812,419.07035 c -0.31975,-0.52191 3.03391,0.41272 7.24033,-0.41753 4.55444,-1.36818 7.01659,-9.28732 7.42848,-9.20944 1.43186,0.16026 -2.78033,10.15739 -5.91685,11.44817 -2.5455,0.81091 -10.86801,-0.0411 -8.75188,-1.82159 z"
         style="fill:#e20000;fill-opacity:1;stroke:none" />
      <path
         sodipodi:nodetypes="cccccc"
         inkscape:connector-curvature="0"
         id="path4540-1"
         d="m 308.40427,409.36372 c -0.35233,-0.61304 3.31365,0.46527 7.89881,-0.54296 4.96147,-1.64485 6.56684,-7.22468 7.01685,-7.13577 1.97088,1.82736 -2.76889,8.71848 -5.77256,9.67107 -2.73828,0.94334 -9.15568,0.83231 -9.14302,-1.99282 z"
         style="fill:#e20000;fill-opacity:1;stroke:none" />
      <path
         sodipodi:nodetypes="ccccc"
         inkscape:connector-curvature="0"
         id="path4540-3"
         d="m 323.28735,401.68932 c -0.22677,-0.54343 7.10704,0.22637 12.1332,-0.69631 5.68347,-1.45221 6.26504,-6.06595 6.77451,-5.96954 1.98034,0.75201 -1.80758,6.06495 -4.4435,7.50942 -3.97229,2.18698 -12.9872,1.55584 -14.46421,-0.84357 z"
         style="fill:#e20000;fill-opacity:1;stroke:none" />
      <path
         sodipodi:nodetypes="cccccc"
         inkscape:connector-curvature="0"
         id="path4540-4"
         d="m 342.28934,394.96583 c -0.30598,-0.49214 3.62412,0.7062 8.87151,0.46079 5.75604,-0.67543 8.64145,-4.19689 9.12999,-4.08195 1.49635,1.09541 -1.61726,6.06807 -7.6471,6.20897 -3.15264,0.36442 -9.81461,-1.62916 -10.35424,-2.58814 z"
         style="fill:#e20000;fill-opacity:1;stroke:none" />
      <path
         sodipodi:nodetypes="ccccc"
         inkscape:connector-curvature="0"
         id="path4540-7"
         d="m 278.29537,431.71668 c -0.36196,-0.49547 2.83347,0.47724 6.96775,-0.78135 4.43808,-1.83689 7.76398,-11.61772 8.18179,-11.58014 0.71501,0.23774 -2.92842,11.91056 -6.48915,13.69146 -2.2699,0.8894 -9.12889,0.53327 -8.66039,-1.32997 z"
         style="fill:#e20000;fill-opacity:1;stroke:none" />
      <path
         id="path3049-4-2-2"
         d="m 315.14912,499.96081 c -0.37652,-2.01368 2.6032,-3.00465 3.42839,-1.14017 0.69026,1.5596 -0.81734,3.36714 -2.3231,2.78529 -0.47278,-0.18304 -0.97027,-0.92302 -1.10529,-1.64512 z"
         style="fill:#000000;fill-opacity:1"
         inkscape:connector-curvature="0" />
      <path
         id="path3049-4-7-5"
         d="m 317.36455,505.61865 c -0.3765,-2.0137 2.60322,-3.00467 3.42842,-1.14016 0.69024,1.55957 -0.81736,3.3671 -2.32312,2.78529 -0.47278,-0.18304 -0.97028,-0.92303 -1.1053,-1.64513 z"
         style="fill:#000000;fill-opacity:1"
         inkscape:connector-curvature="0" />
    </g>
    <g
       id="g9456"
       transform="translate(-0.14793341,2.1861859)">
      <path
         id="path3194"
         style="fill:#000000;fill-opacity:1;fill-rule:evenodd;stroke:none"
         d="m 293.75896,389.0975 0.85452,0.64088 c 0,0 2.63473,-4.05892 3.27562,-7.90422 0.64088,-3.8453 0.20854,-8.73257 -0.78331,-9.75566 -1.25735,-1.29698 -4.60379,-3.91793 -5.69673,-5.12707 -1.11745,-1.23626 -1.18608,-3.41916 -1.13936,-3.48925 l -0.78329,0.35605 0.21362,22.64453 c 0,0 -2.12789,-0.36476 -3.19292,-0.25662 -1.72903,0.17556 -4.42646,1.68081 -5.28097,3.46103 -0.85451,1.78023 -0.85451,4.41497 1.63781,4.84223 2.49232,0.42726 4.41497,-0.21363 5.55432,-1.06814 1.13934,-0.85451 2.84837,-2.34991 2.84837,-3.98771 0,-1.63782 -0.56967,-2.42112 -0.56967,-4.27256 0,-1.85144 0.0712,-12.3904 0.0712,-12.3904 0,0 0.85451,1.06813 1.99387,1.28177 1.13934,0.21362 2.63473,-0.14242 3.70287,1.70902 1.06814,1.85143 0.99693,4.55738 -0.0712,7.7618 -1.06813,3.20442 -2.70595,5.55432 -2.63474,5.55432 z"
         inkscape:connector-curvature="0" />
      <path
         sodipodi:nodetypes="ccccssccc"
         id="path3194-9"
         style="fill:#000000;fill-opacity:1;fill-rule:evenodd;stroke:none"
         d="m 272.98625,380.13679 -0.8588,-0.004 0.21054,22.31739 c 0,0 -2.09714,-0.35949 -3.14679,-0.25292 -1.70405,0.17303 -4.36251,1.65653 -5.20467,3.41103 -0.84217,1.75452 -0.84217,4.35119 1.61414,4.77228 2.45632,0.42108 4.35119,-0.21055 5.47408,-1.05271 3.63637,-2.51086 2.27954,-4.76861 2.24577,-7.78581 0,-0.97639 -0.33427,-19.55562 -0.33427,-21.40503 z"
         inkscape:connector-curvature="0" />
      <path
         id="path3194-7"
         style="fill:#000000;fill-opacity:1;fill-rule:evenodd;stroke:none"
         d="m 268.56593,438.03665 0.85452,0.64088 c 0,0 2.63473,-4.05892 3.27562,-7.90422 0.64088,-3.8453 0.20854,-8.73257 -0.78331,-9.75566 -1.25735,-1.29698 -4.60379,-3.91793 -5.69673,-5.12707 -1.11745,-1.23626 -1.18608,-3.41916 -1.13936,-3.48925 l -0.78329,0.35605 0.21362,22.64453 c 0,0 -2.12789,-0.36476 -3.19292,-0.25662 -1.72903,0.17556 -4.42646,1.68081 -5.28097,3.46103 -0.85451,1.78023 -0.85451,4.41497 1.63781,4.84223 2.49232,0.42726 4.41497,-0.21363 5.55432,-1.06814 1.13934,-0.85451 2.84837,-2.34991 2.84837,-3.98771 0,-1.63782 -0.56967,-2.42112 -0.56967,-4.27256 0,-1.85144 0.0712,-12.3904 0.0712,-12.3904 0,0 0.85451,1.06813 1.99387,1.28177 1.13934,0.21362 2.63473,-0.14242 3.70287,1.70902 1.06814,1.85143 0.99693,4.55738 -0.0712,7.7618 -1.06813,3.20442 -2.70595,5.55432 -2.63474,5.55432 z"
         inkscape:connector-curvature="0" />
      <path
         sodipodi:nodetypes="ccccssccc"
         id="path3194-9-4"
         style="fill:#000000;fill-opacity:1;fill-rule:evenodd;stroke:none"
         d="m 314.20264,357.67197 -0.8588,-0.004 0.21054,22.31739 c 0,0 -2.09714,-0.35949 -3.14679,-0.25292 -1.70405,0.17303 -4.36251,1.65653 -5.20467,3.41103 -0.84217,1.75452 -0.84217,4.35119 1.61414,4.77228 2.45632,0.42108 4.35119,-0.21055 5.47408,-1.05271 3.63637,-2.51086 2.27954,-4.76861 2.24577,-7.78581 0,-0.97639 -0.33427,-19.55562 -0.33427,-21.40503 z"
         inkscape:connector-curvature="0" />
    </g>
  </g>
</svg>
