<?xml version="1.0" encoding="UTF-8" standalone="no"?>
<!-- Created with Inkscape (http://www.inkscape.org/) -->

<svg
   xmlns:dc="http://purl.org/dc/elements/1.1/"
   xmlns:cc="http://creativecommons.org/ns#"
   xmlns:rdf="http://www.w3.org/1999/02/22-rdf-syntax-ns#"
   xmlns:svg="http://www.w3.org/2000/svg"
   xmlns="http://www.w3.org/2000/svg"
   xmlns:sodipodi="http://sodipodi.sourceforge.net/DTD/sodipodi-0.dtd"
   xmlns:inkscape="http://www.inkscape.org/namespaces/inkscape"
   version="1.0"
   width="20.871176"
   height="41.919685"
   id="svg1463"
   inkscape:version="0.48.4 r9939"
   sodipodi:docname="blanche.svg">
  <metadata
     id="metadata9">
    <rdf:RDF>
      <cc:Work
         rdf:about="">
        <dc:format>image/svg+xml</dc:format>
        <dc:type
           rdf:resource="http://purl.org/dc/dcmitype/StillImage" />
        <dc:title></dc:title>
      </cc:Work>
    </rdf:RDF>
  </metadata>
  <sodipodi:namedview
     pagecolor="#ffffff"
     bordercolor="#666666"
     borderopacity="1"
     objecttolerance="10"
     gridtolerance="10"
     guidetolerance="10"
     inkscape:pageopacity="0"
     inkscape:pageshadow="2"
     inkscape:window-width="640"
     inkscape:window-height="480"
     id="namedview7"
     showgrid="false"
     fit-margin-top="0"
     fit-margin-left="0"
     fit-margin-right="0"
     fit-margin-bottom="0"
     inkscape:zoom="5.6297712"
     inkscape:cx="-16.252601"
     inkscape:cy="34.015587"
     inkscape:window-x="0"
     inkscape:window-y="0"
     inkscape:window-maximized="0"
     inkscape:current-layer="svg1463" />
  <defs
     id="defs1466" />
  <g
     transform="matrix(-1,0,0,-1,247.83059,258.85449)"
     id="g10997">
    <path
       d="m 237.68484,218.18353 c -3.39584,1.81997 -5.20528,5.11455 -4.09222,7.59296 1.18726,2.64364 5.26701,3.38972 9.10658,1.66537 3.83956,-1.72436 5.99216,-5.2694 4.8049,-7.91303 -1.18727,-2.64364 -5.26701,-3.38972 -9.10658,-1.66537 -0.23997,0.10777 -0.48628,0.19874 -0.71268,0.32007 z m 1.10973,2.24216 c 0.24123,-0.12433 0.48548,-0.21803 0.74119,-0.33287 3.27307,-1.46994 6.43421,-1.53907 7.05611,-0.15431 0.6219,1.38476 -1.52978,3.70162 -4.80285,5.17157 -3.27308,1.46994 -6.43422,1.53907 -7.05611,0.15431 -0.57332,-1.27658 1.21513,-3.37161 4.06166,-4.8387 z"
       style="opacity:0.9;fill:#000000;fill-opacity:1;fill-rule:evenodd;stroke:none"
       id="path10999"
       inkscape:connector-curvature="0" />
    <path
       d="m 234.05234,224.51692 0,33.58757"
       style="fill:none;stroke:#000000;stroke-width:1.5;stroke-linecap:butt;stroke-linejoin:miter;stroke-miterlimit:4;stroke-opacity:1;stroke-dasharray:none"
       id="path11001"
       inkscape:connector-curvature="0" />
  </g>
  <path
     sodipodi:type="arc"
     style="fill:#000000;fill-opacity:1;stroke:none"
     id="path2986"
     sodipodi:cx="19.094913"
     sodipodi:cy="31.528812"
     sodipodi:rx="1.5098305"
     sodipodi:ry="1.5098305"
     d="m 20.604744,31.528812 a 1.5098305,1.5098305 0 1 1 -3.019661,0 1.5098305,1.5098305 0 1 1 3.019661,0 z"
     transform="matrix(1.4705882,0,0,1.4705882,-9.4299169,-14.926211)" />
</svg>
