<?xml version="1.0" encoding="UTF-8" standalone="no"?>
<!-- Created with Inkscape (http://www.inkscape.org/) -->

<svg
   xmlns:dc="http://purl.org/dc/elements/1.1/"
   xmlns:cc="http://creativecommons.org/ns#"
   xmlns:rdf="http://www.w3.org/1999/02/22-rdf-syntax-ns#"
   xmlns:svg="http://www.w3.org/2000/svg"
   xmlns="http://www.w3.org/2000/svg"
   xmlns:sodipodi="http://sodipodi.sourceforge.net/DTD/sodipodi-0.dtd"
   xmlns:inkscape="http://www.inkscape.org/namespaces/inkscape"
   version="1.0"
   width="24.886"
   height="41.75"
   id="svg1533"
   inkscape:version="0.48.4 r9939"
   sodipodi:docname="croche.svg">
  <metadata
     id="metadata10">
    <rdf:RDF>
      <cc:Work
         rdf:about="">
        <dc:format>image/svg+xml</dc:format>
        <dc:type
           rdf:resource="http://purl.org/dc/dcmitype/StillImage" />
        <dc:title></dc:title>
      </cc:Work>
    </rdf:RDF>
  </metadata>
  <sodipodi:namedview
     pagecolor="#ffffff"
     bordercolor="#666666"
     borderopacity="1"
     objecttolerance="10"
     gridtolerance="10"
     guidetolerance="10"
     inkscape:pageopacity="0"
     inkscape:pageshadow="2"
     inkscape:window-width="640"
     inkscape:window-height="480"
     id="namedview8"
     showgrid="false"
     inkscape:zoom="5.6526946"
     inkscape:cx="12.443"
     inkscape:cy="20.875"
     inkscape:window-x="0"
     inkscape:window-y="0"
     inkscape:window-maximized="0"
     inkscape:current-layer="svg1533" />
  <defs
     id="defs1536" />
  <g
     transform="translate(-427.1495,-34.28441)"
     id="g12994">
    <path
       d="M 431.56955,65.847427 C 428.17371,67.667397 426.36427,70.961977 427.47733,73.440387 C 428.66459,76.084027 432.74434,76.830107 436.58391,75.105757 C 440.42347,73.381397 442.57607,69.836357 441.38881,67.192727 C 440.20154,64.549087 436.1218,63.803007 432.28223,65.527357 C 432.04226,65.635127 431.79595,65.726097 431.56955,65.847427 z "
       style="opacity:0.9;fill:#000000;fill-opacity:1;fill-rule:evenodd;stroke:none;stroke-width:0.2;stroke-miterlimit:4;stroke-dashoffset:0;stroke-opacity:1"
       id="path12112" />
    <path
       d="M 441.18705,68.62194 L 441.18705,35.03437"
       style="fill:none;fill-opacity:0.75;fill-rule:evenodd;stroke:#000000;stroke-width:1.5;stroke-linecap:butt;stroke-linejoin:miter;stroke-miterlimit:4;stroke-dasharray:none;stroke-opacity:1"
       id="path12114" />
    <path
       d="M 441.1824,35.99421 C 440.6199,42.30671 446.02495,44.56795 448.6824,47.49421 C 451.20836,50.27568 452.13107,53.48393 452.02788,56.48981 C 452.00033,57.29238 451.78245,60.76992 449.41343,64.25653 C 452.58135,55.50942 449.6319,51.99847 446.75047,49.20495 C 443.26053,45.82149 440.66435,42.63277 441.1824,35.99421 z "
       style="fill:#000000;fill-opacity:1;fill-rule:evenodd;stroke:none;stroke-width:1px;stroke-linecap:butt;stroke-linejoin:miter;stroke-opacity:1"
       id="path12116" />
  </g>
  <path
     sodipodi:type="arc"
     style="fill:#000000;fill-opacity:1;stroke:none"
     id="path2986"
     sodipodi:cx="19.094913"
     sodipodi:cy="31.528812"
     sodipodi:rx="1.5098305"
     sodipodi:ry="1.5098305"
     d="m 20.604744,31.528812 a 1.5098305,1.5098305 0 1 1 -3.019661,0 1.5098305,1.5098305 0 1 1 3.019661,0 z"
     transform="matrix(1.4705882,0,0,1.4705882,-9.6500336,-15.279625)" />
</svg>
