<?xml version="1.0" encoding="UTF-8" standalone="no"?>
<!-- Created with Inkscape (http://www.inkscape.org/) -->

<svg
   xmlns:dc="http://purl.org/dc/elements/1.1/"
   xmlns:cc="http://creativecommons.org/ns#"
   xmlns:rdf="http://www.w3.org/1999/02/22-rdf-syntax-ns#"
   xmlns:svg="http://www.w3.org/2000/svg"
   xmlns="http://www.w3.org/2000/svg"
   xmlns:xlink="http://www.w3.org/1999/xlink"
   xmlns:sodipodi="http://sodipodi.sourceforge.net/DTD/sodipodi-0.dtd"
   xmlns:inkscape="http://www.inkscape.org/namespaces/inkscape"
   version="1.0"
   width="704.96838"
   height="710"
   id="svg1894"
   inkscape:version="0.48.4 r9939"
   sodipodi:docname="B-major.svg">
  <metadata
     id="metadata31">
    <rdf:RDF>
      <cc:Work
         rdf:about="">
        <dc:format>image/svg+xml</dc:format>
        <dc:type
           rdf:resource="http://purl.org/dc/dcmitype/StillImage" />
        <dc:title></dc:title>
      </cc:Work>
    </rdf:RDF>
  </metadata>
  <sodipodi:namedview
     pagecolor="#ffffff"
     bordercolor="#666666"
     borderopacity="1"
     objecttolerance="10"
     gridtolerance="10"
     guidetolerance="10"
     inkscape:pageopacity="0"
     inkscape:pageshadow="2"
     inkscape:window-width="640"
     inkscape:window-height="480"
     id="namedview29"
     showgrid="false"
     fit-margin-top="0"
     fit-margin-left="0"
     fit-margin-right="0"
     fit-margin-bottom="0"
     inkscape:zoom="0.19666667"
     inkscape:cx="255.55357"
     inkscape:cy="230.78396"
     inkscape:window-x="293"
     inkscape:window-y="57"
     inkscape:window-maximized="0"
     inkscape:current-layer="svg1894" />
  <defs
     id="defs1896" />
  <g
     transform="matrix(17.96174,0,0,18.428288,0,74.019689)"
     id="layer1">
    <g
       transform="translate(-84.196,-436.068)"
       style="fill:#000000"
       id="g2103">
      <path
         d="m 86.102,447.457 0,-4.704 2,-0.552 0,4.68 -2,0.576 z m 3.938,-1.138 -1.375,0.394 0,-4.68 1.375,-0.384 0,-1.944 -1.375,0.384 0,-4.78177 -0.563,0 0,4.92677 -2,0.575 0,-4.64977 -0.531,0 0,4.82677 -1.375,0.385 0,1.948 1.375,-0.384 0,4.671 -1.375,0.383 0,1.94 1.375,-0.384 0,4.75477 0.531,0 0,-4.92477 2,-0.55 0,4.62577 0.563,0 0,-4.79977 1.375,-0.385 0,-1.947 z"
         id="path2109"
         inkscape:connector-curvature="0" />
    </g>
  </g>
  <g
     transform="matrix(17.96174,0,0,18.428288,100,254.01969)"
     id="g4145">
    <g
       transform="translate(-84.196,-436.068)"
       style="fill:#000000"
       id="g4147">
      <path
         d="m 86.102,447.457 0,-4.704 2,-0.552 0,4.68 -2,0.576 z m 3.938,-1.138 -1.375,0.394 0,-4.68 1.375,-0.384 0,-1.944 -1.375,0.384 0,-4.78177 -0.563,0 0,4.92677 -2,0.575 0,-4.64977 -0.531,0 0,4.82677 -1.375,0.385 0,1.948 1.375,-0.384 0,4.671 -1.375,0.383 0,1.94 1.375,-0.384 0,4.75477 0.531,0 0,-4.92477 2,-0.55 0,4.62577 0.563,0 0,-4.79977 1.375,-0.385 0,-1.947 z"
         id="path4149"
         inkscape:connector-curvature="0" />
    </g>
  </g>
  <use
     transform="translate(100,-240)"
     id="use4163"
     x="0"
     y="0"
     width="1200"
     height="1200"
     xlink:href="#g4145" />
  <use
     transform="translate(200,-60)"
     id="use4165"
     x="0"
     y="0"
     width="1200"
     height="1200"
     xlink:href="#g4145" />
</svg>
