<?xml version="1.0" encoding="UTF-8" standalone="no"?>
<!-- Created with Inkscape (http://www.inkscape.org/) -->

<svg
   xmlns:dc="http://purl.org/dc/elements/1.1/"
   xmlns:cc="http://creativecommons.org/ns#"
   xmlns:rdf="http://www.w3.org/1999/02/22-rdf-syntax-ns#"
   xmlns:svg="http://www.w3.org/2000/svg"
   xmlns="http://www.w3.org/2000/svg"
   xmlns:sodipodi="http://sodipodi.sourceforge.net/DTD/sodipodi-0.dtd"
   xmlns:inkscape="http://www.inkscape.org/namespaces/inkscape"
   version="1.0"
   x="0.0000000"
   y="0.0000000"
   width="40"
   height="40"
   id="svg3083"
   inkscape:version="0.48.4 r9939"
   sodipodi:docname="FClef.svg">
  <metadata
     id="metadata13">
    <rdf:RDF>
      <cc:Work
         rdf:about="">
        <dc:format>image/svg+xml</dc:format>
        <dc:type
           rdf:resource="http://purl.org/dc/dcmitype/StillImage" />
      </cc:Work>
    </rdf:RDF>
  </metadata>
  <sodipodi:namedview
     pagecolor="#ffffff"
     bordercolor="#666666"
     borderopacity="1"
     objecttolerance="10"
     gridtolerance="10"
     guidetolerance="10"
     inkscape:pageopacity="0"
     inkscape:pageshadow="2"
     inkscape:window-width="640"
     inkscape:window-height="480"
     id="namedview11"
     showgrid="false"
     inkscape:zoom="5.9"
     inkscape:cx="13.858219"
     inkscape:cy="22.141451"
     inkscape:window-x="270"
     inkscape:window-y="305"
     inkscape:window-maximized="0"
     inkscape:current-layer="svg3083" />
  <defs
     id="defs3" />
  <g
     transform="matrix(1.3650713,0,0,1.3650713,7.6230603,6.7852405)"
     id="layer1">
    <g
       transform="translate(-230.9546,-533.6597)"
       style="fill:#000000;fill-opacity:1"
       id="g2883">
      <path
         d="m 248.25999,536.802 c 0.008,0.36938 -0.14955,0.73865 -0.43121,0.97985 -0.36025,0.32891 -0.90945,0.39628 -1.3583,0.22886 -0.44485,-0.17177 -0.7737,-0.61188 -0.79903,-1.09011 -0.0338,-0.37371 0.0854,-0.76581 0.35602,-1.03193 0.2551,-0.27187 0.63497,-0.4047 1.004,-0.38222 0.37984,0.008 0.74658,0.19956 0.97342,0.50374 0.17473,0.22433 0.25749,0.50935 0.2551,0.79181 z"
         style="fill:#000000;fill-opacity:1"
         id="path2885"
         inkscape:connector-curvature="0" />
    </g>
    <g
       transform="translate(-230.9546,-533.6597)"
       style="fill:#000000;fill-opacity:1"
       id="g2887">
      <path
         d="m 248.25999,542.64502 c 0.008,0.36967 -0.14923,0.73944 -0.43121,0.98083 -0.36025,0.32891 -0.90945,0.39628 -1.3583,0.22887 -0.44511,-0.17184 -0.77393,-0.61235 -0.79903,-1.09083 -0.0349,-0.37399 0.0921,-0.76081 0.35555,-1.03089 0.24963,-0.27846 0.6336,-0.4051 1.00145,-0.3835 0.48385,0.0133 0.92314,0.34301 1.12317,0.77515 0.074,0.16275 0.10881,0.34192 0.10837,0.52037 z"
         style="fill:#000000;fill-opacity:1"
         id="path2889"
         inkscape:connector-curvature="0" />
    </g>
    <g
       transform="translate(-230.9546,-533.6597)"
       style="fill:#000000;fill-opacity:1"
       id="g2891">
      <path
         d="m 243.979,540.86798 c 0.045,2.8246 -1.2154,5.57017 -3.21431,7.53651 -2.48942,2.48828 -5.74678,4.07085 -9.06707,5.12812 -0.44172,0.23921 -1.10792,-0.0762 -0.41212,-0.40117 1.33796,-0.60855 2.72769,-1.13094 3.96014,-1.95064 2.72235,-1.6833 5.01959,-4.33406 5.57715,-7.56226 0.32492,-1.96502 0.23445,-4.01059 -0.25795,-5.94002 -0.36132,-1.41859 -1.34451,-2.88302 -2.90132,-3.09265 -1.41284,-0.21626 -2.91467,0.27318 -3.92295,1.29506 -0.26516,0.26874 -0.78141,1.0131 -0.69622,1.86654 0.60202,-0.47279 0.56093,-0.42015 1.05465,-0.6403 1.13673,-0.50686 2.64449,0.21388 2.928,1.46555 0.30209,1.15023 0.0685,2.61366 -1.06664,3.22688 -1.18524,0.64453 -2.93424,0.37778 -3.59586,-0.89094 -1.09534,-1.95448 -0.49303,-4.62673 1.27752,-5.98295 1.80312,-1.49647 4.43407,-1.55482 6.55761,-0.78709 2.18456,0.81249 3.48666,3.07621 3.69728,5.31832 0.0573,0.46798 0.0821,0.93974 0.0821,1.41104 z"
         style="fill:#000000;fill-opacity:1"
         id="path2893"
         inkscape:connector-curvature="0" />
    </g>
  </g>
</svg>
