<?xml version="1.0" encoding="UTF-8" standalone="no"?>
<svg
   xmlns:dc="http://purl.org/dc/elements/1.1/"
   xmlns:cc="http://creativecommons.org/ns#"
   xmlns:rdf="http://www.w3.org/1999/02/22-rdf-syntax-ns#"
   xmlns:svg="http://www.w3.org/2000/svg"
   xmlns="http://www.w3.org/2000/svg"
   xmlns:sodipodi="http://sodipodi.sourceforge.net/DTD/sodipodi-0.dtd"
   xmlns:inkscape="http://www.inkscape.org/namespaces/inkscape"
   width="40"
   version="1.1"
   height="40"
   id="svg2"
   inkscape:version="0.48.4 r9939"
   sodipodi:docname="GClef.svg">
  <metadata
     id="metadata10">
    <rdf:RDF>
      <cc:Work
         rdf:about="">
        <dc:format>image/svg+xml</dc:format>
        <dc:type
           rdf:resource="http://purl.org/dc/dcmitype/StillImage" />
      </cc:Work>
    </rdf:RDF>
  </metadata>
  <defs
     id="defs8" />
  <sodipodi:namedview
     pagecolor="#ffffff"
     bordercolor="#666666"
     borderopacity="1"
     objecttolerance="10"
     gridtolerance="10"
     guidetolerance="10"
     inkscape:pageopacity="0"
     inkscape:pageshadow="2"
     inkscape:window-width="640"
     inkscape:window-height="480"
     id="namedview6"
     showgrid="false"
     inkscape:zoom="5.7888538"
     inkscape:cx="8.336499"
     inkscape:cy="19.036456"
     inkscape:window-x="0"
     inkscape:window-y="0"
     inkscape:window-maximized="0"
     inkscape:current-layer="svg2" />
  <path
     d="M 22.186066,3.5505385 C 22.494535,6.6106036 20.144098,9.0870022 18.062485,11.088775 17.11695,11.96677 17.905721,11.233639 17.411462,11.67019 17.3081,11.201338 17.109465,9.975863 17.128075,9.6048925 c 0.131883,-2.6368261 2.346189,-6.447935 4.286311,-7.8536093 0.312515,0.5644818 0.569405,0.6098988 0.77168,1.7992553 z m 0.658405,15.8000105 c -1.246015,-0.886805 -2.88242,-1.119763 -4.382897,-0.86625 -0.193477,-1.228411 -0.387054,-2.456822 -0.58053,-3.684254 2.37734,-2.279658 4.962416,-4.9255872 5.09794,-8.3584825 0.05967,-2.1847121 -0.279139,-4.5724301 -1.697088,-6.34623613 -1.719743,0.12551327 -2.932484,2.11032213 -3.845149,3.34411673 -1.505838,2.6139219 -1.154385,5.7915426 -0.576485,8.6101349 -0.818607,0.931831 -1.95155,1.706072 -2.758426,2.676077 -2.382902,2.259102 -4.45865,5.314958 -4.050155,8.689907 0.185405,3.263365 2.618856,6.297687 5.936978,7.073887 1.259871,0.308326 2.593066,0.338669 3.867602,0.0969 0.222401,2.202331 1.038278,4.530929 0.09355,6.668658 -0.708671,1.564144 -2.81921,2.940356 -4.381786,2.145559 -0.606216,-0.309303 -0.114991,-0.04992 -0.483435,-0.246659 1.08197,-0.251555 2.022347,-1.014051 2.285709,-1.531843 0.847331,-1.432983 -0.404348,-3.561903 -2.179919,-3.286856 -2.287732,0.04502 -3.226693,3.073475 -1.755344,4.585742 1.362121,1.487796 3.876603,1.284203 5.491871,0.311262 1.833119,-1.155 2.062701,-3.468915 1.853346,-5.444161 -0.0708,-0.663636 -0.407584,-2.613433 -0.44905,-3.315242 0.704929,-0.243725 0.211377,-0.05775 1.206571,-0.439487 2.690259,-1.030691 4.406564,-4.168768 3.634884,-6.971111 -0.321617,-1.437878 -1.055876,-2.852263 -2.328187,-3.711662 z m 0.567382,5.63503 c 0.216434,1.948819 -1.064979,4.229454 -3.114026,4.854916 -0.137547,-0.778157 -0.173956,-0.98958 -0.265587,-1.44375 -0.487685,-2.407881 -0.752463,-4.881344 -1.128695,-7.322505 1.643081,-0.164441 3.496932,0.531496 4.06836,2.137729 0.246775,0.564776 0.346902,1.17164 0.439948,1.77361 z m -5.207169,5.085916 c -2.573041,0.138013 -5.056373,-1.561207 -5.698394,-3.994538 -0.757521,-2.107386 -0.53431,-4.531908 0.830036,-6.366204 1.127785,-1.665941 2.636151,-3.039217 4.074428,-4.446751 0.185082,1.103123 0.370164,2.206246 0.555245,3.310348 -3.02462,0.765432 -5.061531,4.624895 -3.251572,7.293141 0.538456,0.747813 1.998984,2.175902 2.796959,1.599381 -1.114536,-0.66853 -2.026089,-1.819614 -1.830084,-3.158632 -0.08303,-1.254839 1.385483,-2.849326 2.68146,-3.130246 0.443387,2.808217 0.952008,5.944336 1.395395,8.753531 -0.511149,0.09788 -1.032716,0.13997 -1.553473,0.13997 z"
     id="path4"
     inkscape:connector-curvature="0" />
</svg>
