<?xml version="1.0" encoding="UTF-8" standalone="no"?>
<svg
   xmlns:dc="http://purl.org/dc/elements/1.1/"
   xmlns:cc="http://creativecommons.org/ns#"
   xmlns:rdf="http://www.w3.org/1999/02/22-rdf-syntax-ns#"
   xmlns:svg="http://www.w3.org/2000/svg"
   xmlns="http://www.w3.org/2000/svg"
   xmlns:xlink="http://www.w3.org/1999/xlink"
   xmlns:sodipodi="http://sodipodi.sourceforge.net/DTD/sodipodi-0.dtd"
   xmlns:inkscape="http://www.inkscape.org/namespaces/inkscape"
   contentScriptType="text/ecmascript"
   zoomAndPan="magnify"
   contentStyleType="text/css"
   version="1.1"
   width="31.110003"
   preserveAspectRatio="xMidYMid meet"
   viewBox="0 0 31.110003 30.150999"
   height="30.150999"
   x="0px"
   y="0px"
   id="svg2"
   inkscape:version="0.48.4 r9939"
   sodipodi:docname="information.svg">
  <metadata
     id="metadata36">
    <rdf:RDF>
      <cc:Work
         rdf:about="">
        <dc:format>image/svg+xml</dc:format>
        <dc:type
           rdf:resource="http://purl.org/dc/dcmitype/StillImage" />
      </cc:Work>
    </rdf:RDF>
  </metadata>
  <defs
     id="defs34" />
  <sodipodi:namedview
     pagecolor="#ffffff"
     bordercolor="#666666"
     borderopacity="1"
     objecttolerance="10"
     gridtolerance="10"
     guidetolerance="10"
     inkscape:pageopacity="0"
     inkscape:pageshadow="2"
     inkscape:window-width="640"
     inkscape:window-height="480"
     id="namedview32"
     showgrid="false"
     fit-margin-top="0"
     fit-margin-left="0"
     fit-margin-right="0"
     fit-margin-bottom="0"
     inkscape:zoom="5.3636364"
     inkscape:cx="14.906"
     inkscape:cy="17.543"
     inkscape:window-x="0"
     inkscape:window-y="0"
     inkscape:window-maximized="0"
     inkscape:current-layer="svg2" />
  <g
     id="g4"
     transform="translate(-7.0940003,-9.392)">
    <rect
       width="44"
       height="44"
       id="rect6"
       x="0"
       y="0"
       style="fill:none" />
  </g>
  <g
     id="g8"
     transform="translate(-7.0940003,-9.392)">
    <path
       d="m 8.133,23.979 0,5.921 c 0,1.521 1.245,2.764 2.764,2.764 l 1.247,0 0,5.104 c 0,0.717 0.893,1.188 1.518,0.547002 l 4.65,-5.649002 16.09,0 c 1.521,0 2.766,-1.240999 2.766,-2.764999 l 0,-5.922001 c 0,-0.004 0,-0.008 0,-0.015 L 8.133,23.979 z"
       id="path10"
       inkscape:connector-curvature="0"
       style="fill-opacity:0.5;stroke-opacity:0.5" />
    <path
       d="m 34.402,9.394 -23.505,0 C 8.8,9.396 7.099,11.095 7.0940003,13.194 l 0.003,16.588 c 10e-4,2.101999 1.701,3.801 3.7999997,3.803 l 0.209,0 0,4.064998 c 0.047,1.042999 0.775,1.835998 1.9,1.893002 0.006,0 0.011,0 0.016,0 0.509,0 1.013001,-0.242 1.373001,-0.613 l 4.403,-5.343 15.604,0 c 2.098,-0.003 3.797,-1.701998 3.798,-3.804 l 0.004,-16.589 C 38.2,11.097 36.498,9.396 34.402,9.394 z"
       id="path12"
       inkscape:connector-curvature="0"
       style="fill-opacity:0.2;stroke-opacity:0.2" />
    <linearGradient
       x1="466.65631"
       gradientTransform="matrix(1,0,0,-1,-444.0059,-907.0117)"
       y1="-916.40381"
       x2="466.65631"
       gradientUnits="userSpaceOnUse"
       y2="-944.48633"
       xlink:type="simple"
       xlink:actuate="onLoad"
       id="SVGID_1_"
       xlink:show="other">
      <stop
         stop-color="#ebebeb"
         offset="0"
         id="stop15" />
      <stop
         stop-color="#cfc9c2"
         offset="1"
         id="stop17" />
    </linearGradient>
    <path
       d="m 34.402,9.392 -23.505,0 c -1.519999,0 -2.764,1.243 -2.764,2.765001 l 0,16.591999 c 0,1.524 1.245,2.765 2.764,2.765 l 1.247,0 0,5.104 c 0,0.608 0.829,1.256 1.518,0.546 l 4.65,-5.647997 16.09,0 c 1.521,0 2.766,-1.24 2.766,-2.766001 l 0,-16.594002 C 37.167,10.635 35.923,9.392 34.402,9.392 z"
       id="path19"
       inkscape:connector-curvature="0"
       style="fill:url(#SVGID_1_)" />
    <path
       d="m 37.167,20.851 0,-8.764 c 0,-1.483 -1.244,-2.695 -2.765,-2.695 l -23.505,0 c -1.519999,0 -2.764,1.212 -2.764,2.695 l 0,8.764 29.034,0 z"
       id="path21"
       inkscape:connector-curvature="0"
       style="fill:#ebebeb" />
    <linearGradient
       x1="22.9004"
       y1="28.0107"
       x2="22.9004"
       gradientUnits="userSpaceOnUse"
       y2="12.4185"
       xlink:type="simple"
       xlink:actuate="onLoad"
       id="SVGID_2_"
       xlink:show="other">
      <stop
         stop-color="#ebebeb"
         offset="0"
         id="stop24" />
      <stop
         stop-color="#cfc9c2"
         offset="1"
         id="stop26" />
    </linearGradient>
    <path
       d="m 24.462,14.907 0,0 0.997,-0.022 c -0.01,-0.652 -0.261,-1.293999 -0.732,-1.755 -0.471001,-0.465 -1.138001,-0.718 -1.834,-0.712 -0.684,-0.004 -1.345,0.236 -1.815,0.689 -0.477,0.45 -0.738002,1.101 -0.734,1.761 0,0.017 10e-4,0.03 10e-4,0.041 0,0.025 9.99e-4,0.035 0,0.036 -0.004,0.59 0.211,1.162 0.594,1.597 l -0.516002,0 0,11.469 1,0 3.944001,-10e-4 0,-11.469 -0.516999,0 c 0.396,-0.445999 0.613001,-1.033 0.609,-1.633999 l -0.997,0 z"
       id="path28"
       inkscape:connector-curvature="0"
       style="fill:url(#SVGID_2_)" />
    <path
       d="m 24.462,14.909 c 0,0.813 -0.619,1.472 -1.588,1.472 -0.929,0 -1.549,-0.657999 -1.53,-1.472 -0.019,-0.852 0.601,-1.489999 1.548,-1.489999 0.951,-10e-4 1.549,0.637999 1.57,1.489999 z m -3.04,12.103 0,-9.469 2.943002,0 0,9.469 -2.943002,0 z"
       id="path30"
       inkscape:connector-curvature="0" />
  </g>
</svg>
