<?xml version="1.0" encoding="UTF-8" standalone="no"?>
<svg
   xmlns:dc="http://purl.org/dc/elements/1.1/"
   xmlns:cc="http://creativecommons.org/ns#"
   xmlns:rdf="http://www.w3.org/1999/02/22-rdf-syntax-ns#"
   xmlns:svg="http://www.w3.org/2000/svg"
   xmlns="http://www.w3.org/2000/svg"
   xmlns:xlink="http://www.w3.org/1999/xlink"
   xmlns:sodipodi="http://sodipodi.sourceforge.net/DTD/sodipodi-0.dtd"
   xmlns:inkscape="http://www.inkscape.org/namespaces/inkscape"
   contentScriptType="text/ecmascript"
   zoomAndPan="magnify"
   contentStyleType="text/css"
   version="1.1"
   width="31.110001"
   preserveAspectRatio="xMidYMid meet"
   viewBox="0 0 31.110001 30.149"
   height="30.149"
   x="0px"
   y="0px"
   id="svg2"
   inkscape:version="0.48.4 r9939"
   sodipodi:docname="question.svg">
  <metadata
     id="metadata36">
    <rdf:RDF>
      <cc:Work
         rdf:about="">
        <dc:format>image/svg+xml</dc:format>
        <dc:type
           rdf:resource="http://purl.org/dc/dcmitype/StillImage" />
        <dc:title />
      </cc:Work>
    </rdf:RDF>
  </metadata>
  <defs
     id="defs34">
    <linearGradient
       xlink:show="other"
       id="SVGID_1_"
       xlink:actuate="onLoad"
       xlink:type="simple"
       y2="-944.48633"
       gradientUnits="userSpaceOnUse"
       x2="466.65631"
       y1="-916.40381"
       gradientTransform="matrix(1,0,0,-1,-444.0059,-907.0117)"
       x1="466.65631">
      <stop
         id="stop15"
         offset="0"
         stop-color="#ebebeb" />
      <stop
         id="stop17"
         offset="1"
         stop-color="#cfc9c2" />
    </linearGradient>
    <linearGradient
       xlink:show="other"
       id="SVGID_2_"
       xlink:actuate="onLoad"
       xlink:type="simple"
       y2="12.4185"
       gradientUnits="userSpaceOnUse"
       x2="22.9004"
       y1="28.0107"
       x1="22.9004">
      <stop
         id="stop24"
         offset="0"
         stop-color="#ebebeb" />
      <stop
         id="stop26"
         offset="1"
         stop-color="#cfc9c2" />
    </linearGradient>
    <linearGradient
       inkscape:collect="always"
       xlink:href="#SVGID_2_"
       id="linearGradient3021"
       gradientUnits="userSpaceOnUse"
       x1="22.9004"
       y1="28.0107"
       x2="22.9004"
       y2="12.4185"
       gradientTransform="translate(-24.455108,0.26366694)" />
    <linearGradient
       inkscape:collect="always"
       xlink:href="#SVGID_1_"
       id="linearGradient3025"
       gradientUnits="userSpaceOnUse"
       gradientTransform="matrix(1,0,0,-1,-451.0999,-916.4057)"
       x1="466.65631"
       y1="-916.40381"
       x2="466.65631"
       y2="-944.48633" />
    <linearGradient
       inkscape:collect="always"
       xlink:href="#SVGID_1_"
       id="linearGradient3807"
       x1="21.179199"
       y1="28.668118"
       x2="21.481136"
       y2="11.925267"
       gradientUnits="userSpaceOnUse"
       gradientTransform="translate(-5.7756656,-8.3393323)" />
  </defs>
  <sodipodi:namedview
     pagecolor="#ffffff"
     bordercolor="#666666"
     borderopacity="1"
     objecttolerance="10"
     gridtolerance="10"
     guidetolerance="10"
     inkscape:pageopacity="0"
     inkscape:pageshadow="2"
     inkscape:window-width="1920"
     inkscape:window-height="1028"
     id="namedview32"
     showgrid="false"
     inkscape:zoom="5.3636364"
     inkscape:cx="95.90951"
     inkscape:cy="4.619069"
     inkscape:window-x="0"
     inkscape:window-y="0"
     inkscape:window-maximized="1"
     inkscape:current-layer="svg2"
     fit-margin-top="0"
     fit-margin-left="0"
     fit-margin-right="0"
     fit-margin-bottom="0" />
  <g
     id="g4"
     transform="translate(-7.0940003,-9.394)">
    <rect
       width="44"
       height="44"
       id="rect6"
       x="0"
       y="0"
       style="fill:none" />
  </g>
  <path
     style="fill-opacity:0.5;stroke-opacity:0.5"
     inkscape:connector-curvature="0"
     id="path10"
     d="m 1.0389997,14.585 0,5.921 c 0,1.521 1.245,2.764 2.764,2.764 l 1.247,0 0,5.104 c 0,0.717 0.893,1.188 1.518,0.547002 L 11.218,23.272 l 16.09,0 c 1.521,0 2.766,-1.240999 2.766,-2.764999 l 0,-5.922001 c 0,-0.004 0,-0.008 0,-0.015 L 1.0389997,14.585 z" />
  <path
     style="fill-opacity:0.2;stroke-opacity:0.2"
     inkscape:connector-curvature="0"
     id="path12"
     d="M 27.308,0 3.8029997,0 C 1.7059997,0.002 0.0049997,1.701 0,3.8 l 0.003,16.588 c 0.001,2.101999 1.701,3.801 3.7999997,3.803 l 0.209,0 0,4.064998 c 0.047,1.042999 0.775,1.835998 1.9,1.893002 0.006,0 0.011,0 0.016,0 0.509,0 1.013001,-0.242 1.373001,-0.613 l 4.4030003,-5.343 15.604,0 c 2.098,-0.003 3.797,-1.701998 3.798,-3.804 L 31.110001,3.8 C 31.106,1.703 29.404,0.002 27.308,0 z" />
  <path
     inkscape:connector-curvature="0"
     style="fill:url(#linearGradient3025)"
     id="path19"
     d="m 27.308,-0.002 -23.5050003,0 c -1.519999,0 -2.764,1.243 -2.764,2.765001 l 0,16.591999 c 0,1.524 1.245,2.765 2.764,2.765 l 1.247,0 0,5.104 c 0,0.608 0.829,1.256 1.518,0.546 L 11.218,22.122003 l 16.09,0 c 1.521,0 2.766,-1.24 2.766,-2.766001 L 30.074,2.762 C 30.073,1.241 28.829,-0.002 27.308,-0.002 z" />
  <path
     style="fill:#ebebeb"
     inkscape:connector-curvature="0"
     id="path21"
     d="m 30.073,11.457 0,-8.764 c 0,-1.483 -1.244,-2.695 -2.765,-2.695 l -23.5050003,0 c -1.519999,0 -2.764,1.212 -2.764,2.695 l 0,8.764 29.0340003,0 z" />
  <text
     xml:space="preserve"
     style="font-size:9.44999981px;font-style:normal;font-variant:normal;font-weight:normal;font-stretch:normal;text-align:center;line-height:125%;letter-spacing:0px;word-spacing:0px;text-anchor:middle;fill:#000000;fill-opacity:1;stroke:url(#linearGradient3807);stroke-width:0.80000001;stroke-miterlimit:4;stroke-opacity:1;stroke-dasharray:none;font-family:Arial;-inkscape-font-specification:Arial"
     x="15.845024"
     y="18.785986"
     id="text3029"
     sodipodi:linespacing="125%"><tspan
       sodipodi:role="line"
       id="tspan3031"
       x="15.845024"
       y="18.785986"
       style="font-size:20px;font-weight:bold;fill:#000000;fill-opacity:1;stroke:url(#linearGradient3807);stroke-width:0.80000001;stroke-miterlimit:4;stroke-opacity:1;stroke-dasharray:none;font-family:Amiri Quran;-inkscape-font-specification:Amiri Quran Bold">?</tspan></text>
</svg>
