<?xml version="1.0" encoding="UTF-8" standalone="no"?>
<!-- Created with Inkscape (http://www.inkscape.org/) -->

<svg
   xmlns:dc="http://purl.org/dc/elements/1.1/"
   xmlns:cc="http://creativecommons.org/ns#"
   xmlns:rdf="http://www.w3.org/1999/02/22-rdf-syntax-ns#"
   xmlns:svg="http://www.w3.org/2000/svg"
   xmlns="http://www.w3.org/2000/svg"
   xmlns:sodipodi="http://sodipodi.sourceforge.net/DTD/sodipodi-0.dtd"
   xmlns:inkscape="http://www.inkscape.org/namespaces/inkscape"
   width="30.741709"
   height="31.741219"
   id="svg2985"
   version="1.1"
   inkscape:version="0.48.4 r9939"
   sodipodi:docname="repeat.svg">
  <defs
     id="defs2987" />
  <sodipodi:namedview
     id="base"
     pagecolor="#ffffff"
     bordercolor="#666666"
     borderopacity="1.0"
     inkscape:pageopacity="0.0"
     inkscape:pageshadow="2"
     inkscape:zoom="5.598901"
     inkscape:cx="61.237634"
     inkscape:cy="9.4902173"
     inkscape:current-layer="layer1"
     showgrid="true"
     inkscape:grid-bbox="true"
     inkscape:document-units="px"
     inkscape:window-width="1666"
     inkscape:window-height="695"
     inkscape:window-x="232"
     inkscape:window-y="124"
     inkscape:window-maximized="0"
     fit-margin-top="0"
     fit-margin-left="0"
     fit-margin-right="0"
     fit-margin-bottom="0" />
  <metadata
     id="metadata2990">
    <rdf:RDF>
      <cc:Work
         rdf:about="">
        <dc:format>image/svg+xml</dc:format>
        <dc:type
           rdf:resource="http://purl.org/dc/dcmitype/StillImage" />
        <dc:title />
      </cc:Work>
    </rdf:RDF>
  </metadata>
  <g
     id="layer1"
     inkscape:label="Layer 1"
     inkscape:groupmode="layer"
     transform="translate(-0.79303242,-0.50132428)">
    <path
       style="fill:none;stroke:#000000;stroke-width:3.70000005;stroke-linecap:butt;stroke-linejoin:miter;stroke-miterlimit:4;stroke-opacity:1;stroke-dasharray:none"
       d="m 3.9293426,2.3513243 0,28.0412177"
       id="path2993"
       inkscape:connector-curvature="0" />
    <path
       style="fill:none;stroke:#000000;stroke-width:1.10000002;stroke-linecap:butt;stroke-linejoin:miter;stroke-miterlimit:4;stroke-opacity:1;stroke-dasharray:none"
       d="m 8.0261286,2.3703871 0,28.0412179"
       id="path2993-3"
       inkscape:connector-curvature="0"
       inkscape:transform-center-x="4.6437685"
       inkscape:transform-center-y="-4.822375" />
    <path
       sodipodi:type="arc"
       style="fill:#000000;fill-opacity:1;stroke:none"
       id="path3781"
       sodipodi:cx="11.650608"
       sodipodi:cy="11.698263"
       sodipodi:rx="2.8100381"
       sodipodi:ry="2.8100381"
       d="m 14.460646,11.698263 c 0,1.551941 -1.258097,2.810038 -2.810038,2.810038 -1.551941,0 -2.810038,-1.258097 -2.810038,-2.810038 0,-1.551941 1.258097,-2.8100379 2.810038,-2.8100379 1.551941,0 2.810038,1.2580969 2.810038,2.8100379 z"
       transform="matrix(0.80931951,0,0,0.80931951,2.2250084,3.1236629)" />
    <path
       sodipodi:type="arc"
       style="fill:#000000;fill-opacity:1;stroke:none"
       id="path3781-8"
       sodipodi:cx="11.650608"
       sodipodi:cy="11.698263"
       sodipodi:rx="2.8100381"
       sodipodi:ry="2.8100381"
       d="m 14.460646,11.698263 c 0,1.551941 -1.258097,2.810038 -2.810038,2.810038 -1.551941,0 -2.810038,-1.258097 -2.810038,-2.810038 0,-1.551941 1.258097,-2.8100379 2.810038,-2.8100379 1.551941,0 2.810038,1.2580969 2.810038,2.8100379 z"
       transform="matrix(0.80931951,0,0,0.80931951,2.2250084,10.565733)" />
    <path
       style="fill:none;stroke:#000000;stroke-width:3.70000005;stroke-linecap:butt;stroke-linejoin:miter;stroke-miterlimit:4;stroke-opacity:1;stroke-dasharray:none"
       d="m 28.521236,2.3513243 0,28.0412177"
       id="path2993-2"
       inkscape:connector-curvature="0" />
    <path
       style="fill:none;stroke:#000000;stroke-width:1.10000002;stroke-linecap:butt;stroke-linejoin:miter;stroke-miterlimit:4;stroke-opacity:1;stroke-dasharray:none"
       d="m 24.26786,2.3780483 0,28.0412177"
       id="path2993-3-4"
       inkscape:connector-curvature="0"
       inkscape:transform-center-x="-4.6437685"
       inkscape:transform-center-y="-4.822375" />
    <path
       sodipodi:type="arc"
       style="fill:#000000;fill-opacity:1;stroke:none"
       id="path3781-1"
       sodipodi:cx="11.650608"
       sodipodi:cy="11.698263"
       sodipodi:rx="2.8100381"
       sodipodi:ry="2.8100381"
       d="m 14.460646,11.698263 c 0,1.551941 -1.258097,2.810038 -2.810038,2.810038 -1.551941,0 -2.810038,-1.258097 -2.810038,-2.810038 0,-1.551941 1.258097,-2.8100379 2.810038,-2.8100379 1.551941,0 2.810038,1.2580969 2.810038,2.8100379 z"
       transform="matrix(-0.80931951,0,0,0.80931951,30.06898,2.9973684)" />
    <path
       sodipodi:type="arc"
       style="fill:#000000;fill-opacity:1;stroke:none"
       id="path3781-8-1"
       sodipodi:cx="11.650608"
       sodipodi:cy="11.698263"
       sodipodi:rx="2.8100381"
       sodipodi:ry="2.8100381"
       d="m 14.460646,11.698263 c 0,1.551941 -1.258097,2.810038 -2.810038,2.810038 -1.551941,0 -2.810038,-1.258097 -2.810038,-2.810038 0,-1.551941 1.258097,-2.8100379 2.810038,-2.8100379 1.551941,0 2.810038,1.2580969 2.810038,2.8100379 z"
       transform="matrix(-0.80931951,0,0,0.80931951,30.06898,10.439439)" />
    <path
       style="fill:none;stroke:#000000;stroke-width:0.2;stroke-linecap:butt;stroke-linejoin:miter;stroke-miterlimit:4;stroke-opacity:1;stroke-dasharray:none"
       d="m 0.89303292,2.2620211 30.54170808,0"
       id="path2992"
       inkscape:connector-curvature="0" />
    <path
       style="fill:none;stroke:#000000;stroke-width:0.2;stroke-linecap:butt;stroke-linejoin:miter;stroke-miterlimit:4;stroke-opacity:1;stroke-dasharray:none"
       d="m 0.89303242,30.481845 30.54170858,0"
       id="path2992-0"
       inkscape:connector-curvature="0" />
    <path
       style="fill:none;stroke:#000000;stroke-width:0.2;stroke-linecap:butt;stroke-linejoin:miter;stroke-miterlimit:4;stroke-opacity:1;stroke-dasharray:none"
       d="m 0.89303341,9.3169787 30.54170759,0"
       id="path2992-3"
       inkscape:connector-curvature="0" />
    <path
       style="fill:none;stroke:#000000;stroke-width:0.2;stroke-linecap:butt;stroke-linejoin:miter;stroke-miterlimit:4;stroke-opacity:1;stroke-dasharray:none"
       d="m 0.8930334,16.371933 30.5417076,0"
       id="path2992-7"
       inkscape:connector-curvature="0" />
    <path
       style="fill:none;stroke:#000000;stroke-width:0.2;stroke-linecap:butt;stroke-linejoin:miter;stroke-miterlimit:4;stroke-opacity:1;stroke-dasharray:none"
       d="m 0.8930333,23.426889 30.5417077,0"
       id="path2992-2"
       inkscape:connector-curvature="0" />
  </g>
</svg>
