<?xml version="1.0" encoding="UTF-8" standalone="no"?>
<!-- Created with Inkscape (http://www.inkscape.org/) -->
<svg xmlns:svg="http://www.w3.org/2000/svg" xmlns="http://www.w3.org/2000/svg" version="1.0" width="10.53" height="26.700001" id="svg2208">
  <defs id="defs2210"/>
  <g transform="translate(-483.56752,-131.77905)" id="layer1">
    <g transform="matrix(1.8,0,0,1.8,-434.91385,4.5054224)" style="fill:#000000;fill-rule:evenodd;stroke:#000000;stroke-width:0;stroke-linecap:butt;stroke-linejoin:round;stroke-miterlimit:10" id="g124">
      <path d="M 512.254,71.019 C 512.117,71.077 512.035,71.277 512.098,71.417 C 512.117,71.437 512.316,71.675 512.516,71.937 C 512.973,72.452 513.051,72.574 513.152,72.812 C 513.551,73.628 513.332,74.667 512.633,75.324 C 512.574,75.402 512.316,75.62 512.074,75.8 C 511.379,76.398 511.059,76.738 510.941,77.038 C 510.898,77.117 510.898,77.195 510.898,77.316 C 510.879,77.593 510.898,77.617 511.719,78.57 C 512.832,79.906 513.629,80.843 513.691,80.902 L 513.75,80.96 L 513.672,80.921 C 512.574,80.464 511.34,80.245 510.922,80.445 C 510.781,80.503 510.699,80.585 510.641,80.722 C 510.48,81.062 510.523,81.562 510.762,82.296 C 510.98,82.956 511.418,83.831 511.855,84.488 C 512.035,84.769 512.375,85.206 512.414,85.226 C 512.473,85.285 512.555,85.265 512.613,85.226 C 512.672,85.148 512.672,85.085 512.555,84.949 C 512.137,84.351 511.938,83.113 512.176,82.456 C 512.273,82.16 512.395,81.999 512.613,81.898 C 513.191,81.64 514.469,81.96 515.004,82.495 C 515.043,82.535 515.125,82.617 515.164,82.636 C 515.305,82.695 515.504,82.617 515.563,82.476 C 515.645,82.335 515.602,82.238 515.422,82.019 C 515.086,81.62 514.07,80.425 513.93,80.245 C 513.57,79.827 513.41,79.429 513.371,78.929 C 513.352,78.292 513.609,77.617 514.09,77.175 C 514.148,77.097 514.406,76.878 514.645,76.699 C 515.383,76.081 515.684,75.742 515.801,75.421 C 515.883,75.163 515.844,74.925 515.664,74.706 C 515.602,74.648 514.906,73.788 514.09,72.812 C 512.973,71.499 512.574,71.019 512.516,70.999 C 512.434,70.98 512.336,70.98 512.254,71.019 z " style="fill:#000000;stroke:#000000" id="path126"/>
    </g>
  </g>
</svg>