<?xml version="1.0" encoding="UTF-8" standalone="no"?>
<!-- Created with Inkscape (http://www.inkscape.org/) -->
<svg xmlns:svg="http://www.w3.org/2000/svg" xmlns="http://www.w3.org/2000/svg" version="1.0" width="12.66" height="26.65" id="svg2208">
  <defs id="defs2210"/>
  <g transform="translate(-481.99253,-144.99198)" id="layer1">
    <g transform="matrix(1.8,0,0,1.8,-492.20747,10.83713)" style="fill:#000000;fill-rule:evenodd;stroke:#000000;stroke-width:0;stroke-linecap:butt;stroke-linejoin:round;stroke-miterlimit:10" id="g88">
      <path d="M 544.191,74.847 C 543.672,74.945 543.273,75.304 543.098,75.8 C 543.055,75.96 543.055,75.999 543.055,76.218 C 543.055,76.519 543.074,76.679 543.215,76.917 C 543.414,77.316 543.832,77.636 544.313,77.753 C 544.809,77.894 545.605,77.792 546.563,77.476 C 546.703,77.417 546.82,77.374 546.82,77.394 C 546.82,77.417 545.926,80.324 545.887,80.425 C 545.785,80.683 545.445,81.16 545.148,81.46 C 544.871,81.738 544.73,81.8 544.512,81.699 C 544.332,81.601 544.273,81.499 544.152,80.96 C 544.051,80.562 543.973,80.343 543.813,80.187 C 543.395,79.726 542.676,79.667 542.121,80.027 C 541.859,80.206 541.66,80.484 541.543,80.785 C 541.5,80.941 541.5,80.984 541.5,81.202 C 541.5,81.499 541.523,81.66 541.66,81.898 C 541.859,82.296 542.277,82.617 542.758,82.734 C 542.977,82.796 543.535,82.796 543.914,82.734 C 544.23,82.675 544.609,82.577 544.988,82.456 C 545.148,82.398 545.289,82.359 545.289,82.378 C 545.289,82.378 543.336,88.734 543.297,88.831 C 543.297,88.851 543.453,88.972 543.613,89.011 C 543.773,89.074 543.934,89.074 544.094,89.011 C 544.25,88.972 544.41,88.874 544.41,88.812 C 544.43,88.792 545.227,85.785 546.203,82.136 L 547.977,75.503 L 547.938,75.445 C 547.859,75.324 547.699,75.304 547.559,75.363 C 547.48,75.402 547.48,75.402 547.242,75.761 C 547.043,76.081 546.762,76.417 546.602,76.577 C 546.383,76.757 546.266,76.796 546.066,76.718 C 545.887,76.62 545.824,76.519 545.707,75.98 C 545.586,75.445 545.445,75.202 545.148,75.003 C 544.871,74.824 544.512,74.765 544.191,74.847 z " style="fill:#000000;stroke:#000000" id="path90"/>
    </g>
  </g>
</svg>