<?xml version="1.0" encoding="UTF-8" standalone="no"?>
<!-- Created with Inkscape (http://www.inkscape.org/) -->
<svg xmlns:svg="http://www.w3.org/2000/svg" xmlns="http://www.w3.org/2000/svg" version="1.0" width="15.58" height="36.599998" id="svg2208">
  <defs id="defs2210"/>
  <g transform="translate(-475.06688,-159.77527)" id="layer1">
    <g transform="matrix(1.8,0,0,1.8,-513.75672,35.085269)" style="fill:#000000;fill-rule:evenodd;stroke:#000000;stroke-width:0;stroke-linecap:butt;stroke-linejoin:round;stroke-miterlimit:10" id="g92">
      <path d="M 553.789,69.863 C 553.273,69.964 552.871,70.324 552.695,70.82 C 552.652,70.98 552.652,71.019 552.652,71.238 C 552.652,71.456 552.652,71.538 552.695,71.656 C 552.832,72.097 553.113,72.433 553.551,72.632 C 553.848,72.792 553.988,72.812 554.406,72.812 C 554.926,72.812 555.363,72.734 556.063,72.515 C 556.242,72.452 556.379,72.413 556.379,72.413 C 556.398,72.413 556.219,73.113 555.98,73.949 C 555.684,75.124 555.563,75.503 555.523,75.62 C 555.363,75.921 555.023,76.378 554.805,76.577 C 554.605,76.757 554.488,76.796 554.289,76.718 C 554.109,76.62 554.047,76.519 553.93,75.98 C 553.828,75.581 553.75,75.363 553.59,75.202 C 553.172,74.745 552.453,74.687 551.898,75.046 C 551.637,75.222 551.438,75.503 551.32,75.8 C 551.277,75.96 551.277,75.999 551.277,76.218 C 551.277,76.519 551.301,76.679 551.438,76.917 C 551.637,77.316 552.055,77.636 552.535,77.753 C 552.754,77.816 553.313,77.816 553.691,77.753 C 554.008,77.695 554.387,77.593 554.766,77.476 C 554.945,77.417 555.086,77.374 555.086,77.374 C 555.086,77.394 554.289,80.425 554.246,80.484 C 554.09,80.824 553.77,81.242 553.531,81.48 C 553.273,81.738 553.133,81.781 552.914,81.699 C 552.734,81.601 552.672,81.499 552.555,80.96 C 552.453,80.562 552.375,80.343 552.215,80.187 C 551.797,79.726 551.078,79.667 550.523,80.027 C 550.262,80.206 550.063,80.484 549.945,80.785 C 549.902,80.941 549.902,80.984 549.902,81.202 C 549.902,81.421 549.902,81.499 549.945,81.62 C 550.082,82.058 550.363,82.398 550.801,82.597 C 551.121,82.757 551.238,82.777 551.676,82.777 C 551.996,82.777 552.098,82.777 552.355,82.734 C 552.715,82.675 553.094,82.558 553.512,82.437 L 553.77,82.335 L 553.77,82.398 C 553.75,82.476 552.074,88.773 552.055,88.812 C 552.035,88.894 552.395,89.05 552.613,89.05 C 552.832,89.05 553.152,88.913 553.172,88.812 C 553.191,88.792 554.148,84.667 555.344,79.648 C 557.477,70.562 557.477,70.542 557.438,70.48 C 557.375,70.402 557.277,70.363 557.156,70.363 C 557.016,70.382 556.957,70.441 556.816,70.679 C 556.539,71.16 556.219,71.577 556.043,71.718 C 555.922,71.796 555.82,71.796 555.664,71.738 C 555.484,71.636 555.422,71.538 555.305,70.999 C 555.184,70.46 555.043,70.222 554.746,70.023 C 554.469,69.843 554.109,69.785 553.789,69.863 z " style="fill:#000000;stroke:#000000" id="path94"/>
    </g>
  </g>
</svg>