<?xml version="1.0" encoding="UTF-8" standalone="no"?>
<!-- Created with Inkscape (http://www.inkscape.org/) -->
<svg xmlns:svg="http://www.w3.org/2000/svg" xmlns="http://www.w3.org/2000/svg" version="1.0" width="10.03" height="17.67" id="svg2208">
  <defs id="defs2210"/>
  <g transform="translate(-482.02112,-143.61753)" id="layer1">
    <g transform="matrix(1.8,0,0,1.8,-471.40868,9.4615275)" style="fill:#000000;fill-rule:evenodd;stroke:#000000;stroke-width:0;stroke-linecap:butt;stroke-linejoin:round;stroke-miterlimit:10" id="g128">
      <path d="M 531.098,74.847 C 530.578,74.945 530.18,75.304 530,75.8 C 529.961,75.96 529.961,75.999 529.961,76.218 C 529.961,76.519 529.98,76.679 530.121,76.917 C 530.32,77.316 530.738,77.636 531.215,77.753 C 531.715,77.894 532.551,77.773 533.508,77.456 L 533.746,77.374 L 532.57,80.624 L 531.414,83.87 C 531.414,83.87 531.453,83.89 531.516,83.933 C 531.633,84.011 531.832,84.07 531.973,84.07 C 532.211,84.07 532.512,83.933 532.551,83.812 C 532.551,83.773 533.109,81.878 533.785,79.628 L 534.98,75.503 L 534.941,75.445 C 534.844,75.324 534.645,75.285 534.523,75.382 C 534.484,75.421 534.422,75.503 534.383,75.562 C 534.203,75.863 533.746,76.398 533.508,76.597 C 533.289,76.777 533.168,76.796 532.969,76.718 C 532.789,76.62 532.73,76.519 532.609,75.98 C 532.492,75.445 532.352,75.202 532.051,75.003 C 531.773,74.824 531.414,74.765 531.098,74.847 z " style="fill:#000000;stroke:#000000" id="path130"/>
    </g>
  </g>
</svg>