<?xml version="1.0" encoding="UTF-8" standalone="no"?>
<!-- Created with Inkscape (http://www.inkscape.org/) -->

<svg
   xmlns:dc="http://purl.org/dc/elements/1.1/"
   xmlns:cc="http://creativecommons.org/ns#"
   xmlns:rdf="http://www.w3.org/1999/02/22-rdf-syntax-ns#"
   xmlns:svg="http://www.w3.org/2000/svg"
   xmlns="http://www.w3.org/2000/svg"
   xmlns:sodipodi="http://sodipodi.sourceforge.net/DTD/sodipodi-0.dtd"
   xmlns:inkscape="http://www.inkscape.org/namespaces/inkscape"
   version="1.0"
   width="14.566"
   height="41.919998"
   id="svg1497"
   inkscape:version="0.48.4 r9939"
   sodipodi:docname="noire.svg">
  <metadata
     id="metadata9">
    <rdf:RDF>
      <cc:Work
         rdf:about="">
        <dc:format>image/svg+xml</dc:format>
        <dc:type
           rdf:resource="http://purl.org/dc/dcmitype/StillImage" />
        <dc:title></dc:title>
      </cc:Work>
    </rdf:RDF>
  </metadata>
  <sodipodi:namedview
     pagecolor="#ffffff"
     bordercolor="#666666"
     borderopacity="1"
     objecttolerance="10"
     gridtolerance="10"
     guidetolerance="10"
     inkscape:pageopacity="0"
     inkscape:pageshadow="2"
     inkscape:window-width="640"
     inkscape:window-height="480"
     id="namedview7"
     showgrid="false"
     inkscape:zoom="10.24"
     inkscape:cx="6.0189295"
     inkscape:cy="10.028648"
     inkscape:window-x="0"
     inkscape:window-y="0"
     inkscape:window-maximized="0"
     inkscape:current-layer="svg1497" />
  <defs
     id="defs1500" />
  <path
     inkscape:connector-curvature="0"
     d="m 6.9076774,31.906919 c -3.7905061,0.135665 -6.79439604,1.922982 -6.79439604,4.095253 0,2.260579 3.25237504,4.095252 7.25976564,4.095252 4.00739,0 7.259765,-1.834673 7.259765,-4.095252 0,-2.26058 -3.252375,-4.095253 -7.259765,-4.095253 -0.1565354,0 -0.3112839,-0.0055 -0.4653696,0 z m -1.2099609,0.791129 c 1.0110806,-0.103499 2.2843913,0.365296 3.350661,1.326266 1.5971635,1.439444 2.1378855,3.457807 1.2099605,4.514085 l -0.02327,0.02331 C 9.2887986,39.611653 7.2103166,39.287532 5.6046426,37.840344 3.9989686,36.393231 3.4716787,34.352976 4.4179501,33.303028 4.7358385,32.950315 5.1862269,32.750392 5.6977165,32.698048 z"
     style="opacity:0.9;fill:#000000;fill-opacity:1;fill-rule:nonzero;stroke:none"
     id="path3937" />
</svg>
