<?xml version="1.0" encoding="UTF-8" standalone="no"?>
<svg
   xmlns:dc="http://purl.org/dc/elements/1.1/"
   xmlns:cc="http://creativecommons.org/ns#"
   xmlns:rdf="http://www.w3.org/1999/02/22-rdf-syntax-ns#"
   xmlns:svg="http://www.w3.org/2000/svg"
   xmlns="http://www.w3.org/2000/svg"
   xmlns:sodipodi="http://sodipodi.sourceforge.net/DTD/sodipodi-0.dtd"
   xmlns:inkscape="http://www.inkscape.org/namespaces/inkscape"
   enable-background="new 0 0 512 512"
   height="512px"
   id="Layer_1"
   version="1.1"
   viewBox="0 0 512 512"
   width="512px"
   xml:space="preserve"
   inkscape:version="0.48.4 r9939"
   sodipodi:docname="1424591031_floppy_disk_save.svg"><metadata
     id="metadata295"><rdf:RDF><cc:Work
         rdf:about=""><dc:format>image/svg+xml</dc:format><dc:type
           rdf:resource="http://purl.org/dc/dcmitype/StillImage" /><dc:title></dc:title></cc:Work></rdf:RDF></metadata><defs
     id="defs293" /><sodipodi:namedview
     pagecolor="#ffffff"
     bordercolor="#666666"
     borderopacity="1"
     objecttolerance="10"
     gridtolerance="10"
     guidetolerance="10"
     inkscape:pageopacity="0"
     inkscape:pageshadow="2"
     inkscape:window-width="640"
     inkscape:window-height="480"
     id="namedview291"
     showgrid="false"
     inkscape:zoom="0.4609375"
     inkscape:cx="256"
     inkscape:cy="256"
     inkscape:window-x="784"
     inkscape:window-y="183"
     inkscape:window-maximized="0"
     inkscape:current-layer="Layer_1" /><g
     id="g3"><g
       id="g5" /><g
       id="g7"><linearGradient
         gradientUnits="userSpaceOnUse"
         id="SVGID_1_"
         x1="444.358398"
         x2="474.785217"
         y1="454.838867"
         y2="485.265686"><stop
           offset="0"
           style="stop-color:#0B0C0D"
           id="stop10" /><stop
           offset="0.4"
           style="stop-color:#0B0B0D"
           id="stop12" /><stop
           offset="0.424242"
           style="stop-color:#1F2124"
           id="stop14" /><stop
           offset="1"
           style="stop-color:#2D2F33"
           id="stop16" /></linearGradient><polygon
         fill="url(#SVGID_1_)"
         points="454.640625,469.30957 454.640625,448.867188 448.605469,448.854492 448.605469,479.763672     479.481445,479.763672 479.507812,469.30957   "
         id="polygon18" /><linearGradient
         gradientUnits="userSpaceOnUse"
         id="SVGID_2_"
         x1="20.272461"
         x2="50.015564"
         y1="454.881836"
         y2="484.624939"><stop
           offset="0"
           style="stop-color:#0B0C0D"
           id="stop21" /><stop
           offset="0.4"
           style="stop-color:#0B0B0D"
           id="stop23" /><stop
           offset="0.424242"
           style="stop-color:#1F2124"
           id="stop25" /><stop
           offset="1"
           style="stop-color:#2D2F33"
           id="stop27" /></linearGradient><polygon
         fill="url(#SVGID_2_)"
         points="30.51123,469.30957 30.519531,448.867188 24.478516,448.854492 24.478516,479.763672     55.376465,479.763672 55.376465,469.30957   "
         id="polygon29" /><linearGradient
         gradientUnits="userSpaceOnUse"
         id="SVGID_3_"
         x1="253.187012"
         x2="253.186996"
         y1="494.583008"
         y2="28.819519"><stop
           offset="0"
           style="stop-color:#17171A"
           id="stop32" /><stop
           offset="0.644578"
           style="stop-color:#2F3033"
           id="stop34" /><stop
           offset="0.975904"
           style="stop-color:#525559"
           id="stop36" /><stop
           offset="1"
           style="stop-color:#727780"
           id="stop38" /></linearGradient><path
         d="M479.151367,25.763184h-53.581055l0.004883,5.36084H75.006836l0.016602-5.344238H52.383789    L16.388184,61.774902L16.37207,490.333008c0.776855,2.308594,3.57373,5.651367,6.451172,5.651367H482.96875    c5.363281,0,7.020508-5.251953,7.020508-9.027344l0.011719-450.36084    C489.989258,30.631348,485.141602,25.746582,479.151367,25.763184z M53.808105,478.213867H26.021973v-27.813477h27.788086    L53.808105,478.213867z M477.939453,478.213867h-27.788086v-27.813477h27.796875L477.939453,478.213867z"
         fill="url(#SVGID_3_)"
         id="path40" /><linearGradient
         gradientUnits="userSpaceOnUse"
         id="SVGID_4_"
         x1="263.426758"
         x2="263.426758"
         y1="33.938965"
         y2="200.667252"><stop
           offset="0"
           style="stop-color:#666673"
           id="stop43" /><stop
           offset="0.072289"
           style="stop-color:#393940"
           id="stop45" /><stop
           offset="1"
           style="stop-color:#17171A"
           id="stop47" /></linearGradient><path
         d="M119.137207,200.346191h288.561035c9.802734,0,17.773438-7.599121,17.769531-17.010254    l0.016602-152.20166l-324.115723-0.026855l0.003906,152.228516C101.368652,192.74707,109.324219,200.327637,119.137207,200.346191    z"
         fill="url(#SVGID_4_)"
         id="path49" /><path
         d="M105.717285,183.335938l-0.003906-152.228516h-4.344727l0.003906,152.228516    c-0.003906,9.411133,7.95166,16.991699,17.764648,17.010254h4.342773    C113.665039,200.327637,105.713379,192.74707,105.717285,183.335938z"
         fill="#B3B3B3"
         id="path51" /><linearGradient
         gradientUnits="userSpaceOnUse"
         id="SVGID_5_"
         x1="252.892578"
         x2="252.892563"
         y1="241.758789"
         y2="496.442505"><stop
           offset="0"
           style="stop-color:#393940"
           id="stop54" /><stop
           offset="1"
           style="stop-color:#323233"
           id="stop56" /></linearGradient><path
         d="M431.757812,495.984375l-0.003906-225.688477    c-0.003906-10.647461-8.635742-19.293457-19.291992-19.293457H93.317871    c-10.660156,0.008301-19.290039,8.629395-19.290039,19.297363v225.68457H431.757812z"
         fill="url(#SVGID_5_)"
         opacity="0.2"
         id="path58" /><polygon
         fill="#D0D2D3"
         opacity="0.3"
         points="74.938477,25.779785 75.023438,25.779785 75.006836,31.124023 75.248047,31.124023     80.899414,21.376953 80.645996,21.360352 80.65625,16.016113 80.571777,16.016113   "
         id="polygon60" /><linearGradient
         gradientUnits="userSpaceOnUse"
         id="SVGID_6_"
         x1="37.840332"
         x2="566.29541"
         y1="81.484375"
         y2="284.474762"><stop
           offset="0"
           style="stop-color:#262626"
           id="stop63" /><stop
           offset="0.636364"
           style="stop-color:#333333"
           id="stop65" /><stop
           offset="0.70303"
           style="stop-color:#4D4D4D"
           id="stop67" /><stop
           offset="0.721212"
           style="stop-color:#1A1A1A"
           id="stop69" /><stop
           offset="1"
           style="stop-color:#17171A"
           id="stop71" /></linearGradient><path
         d="M495.636719,25.763184c-0.012695-5.973145-4.862305-9.74707-10.851562-9.74707h-53.583984    l-3.035156,5.249512l-347.52002,0.094727l0.010254-5.344238H58.019043L19.822266,54.210938l-3.491699,7.605469l0.057617,0.037109    v-0.103027l35.995605-35.970703h22.639648l-0.016602,5.344238h350.568359l-0.004883-5.36084h53.581055    c5.990234-0.016602,10.837891,4.868164,10.849609,10.833008l-0.011719,450.36084    c0.024414,2.085938-0.630859,4.001953-1.632812,5.647461l0.109375,0.069336l5.790039-10.012695    c0.916992-1.59082,1.388672-3.474609,1.388672-5.445312L495.636719,25.763184z"
         fill="url(#SVGID_6_)"
         id="path73" /><defs
         id="defs75"><filter
           filterUnits="userSpaceOnUse"
           height="176.745117"
           id="Adobe_OpacityMaskFilter"
           width="337.145508"
           x="94.855469"
           y="30.116211"><feFlood
             result="back"
             style="flood-color:white;flood-opacity:1"
             id="feFlood78" /><feBlend
             in="SourceGraphic"
             in2="back"
             mode="normal"
             id="feBlend80" /></filter></defs><mask
         height="176.745117"
         id="SVGID_7_"
         maskUnits="userSpaceOnUse"
         width="337.145508"
         x="94.855469"
         y="30.116211"><g
           filter="url(#Adobe_OpacityMaskFilter)"
           id="g83"><defs
             id="defs85"><filter
               filterUnits="userSpaceOnUse"
               height="176.745117"
               id="Adobe_OpacityMaskFilter_1_"
               width="337.145508"
               x="94.855469"
               y="30.116211"><feFlood
                 result="back"
                 style="flood-color:white;flood-opacity:1"
                 id="feFlood88" /><feBlend
                 in="SourceGraphic"
                 in2="back"
                 mode="normal"
                 id="feBlend90" /></filter></defs><mask
             height="176.745117"
             id="mask92"
             maskUnits="userSpaceOnUse"
             width="337.145508"
             x="94.855469"
             y="30.116211"><g
               filter="url(#Adobe_OpacityMaskFilter_1_)"
               id="g94" /></mask><linearGradient
             gradientUnits="userSpaceOnUse"
             id="SVGID_8_"
             x1="94.855469"
             x2="432.000977"
             y1="118.48877"
             y2="118.48877"><stop
               offset="0"
               style="stop-color:#000000"
               id="stop97" /><stop
               offset="0.290909"
               style="stop-color:#FFFFFF"
               id="stop99" /><stop
               offset="0.757576"
               style="stop-color:#FFFFFF"
               id="stop101" /><stop
               offset="1"
               style="stop-color:#000000"
               id="stop103" /></linearGradient><path
             d="M94.855469,30.116211l0.003906,153.21582      c-0.008301,12.95166,10.880859,23.506836,24.277832,23.529297h288.561035c6.428711,0,12.491211-2.407227,17.064453-6.782715      c4.660156-4.454102,7.22168-10.400879,7.219727-16.73877l0.018555-153.223633H94.855469z M425.467773,183.335938      c0.003906,9.411133-7.966797,17.010254-17.769531,17.010254H119.137207      c-9.812988-0.018555-17.768555-7.599121-17.764648-17.010254l-0.003906-152.228516l324.115723,0.026855L425.467773,183.335938z"
             fill="url(#SVGID_8_)"
             mask="url(#SVGID_7_)"
             id="path105" /></g></mask><linearGradient
         gradientUnits="userSpaceOnUse"
         id="SVGID_9_"
         x1="94.855469"
         x2="432.000977"
         y1="118.48877"
         y2="118.48877"><stop
           offset="0"
           style="stop-color:#FFFFFF"
           id="stop108" /><stop
           offset="0.290909"
           style="stop-color:#FFFFFF"
           id="stop110" /><stop
           offset="0.757576"
           style="stop-color:#FFFFFF"
           id="stop112" /><stop
           offset="1"
           style="stop-color:#FFFFFF"
           id="stop114" /></linearGradient><path
         d="M94.855469,30.116211l0.003906,153.21582    c-0.008301,12.95166,10.880859,23.506836,24.277832,23.529297h288.561035c6.428711,0,12.491211-2.407227,17.064453-6.782715    c4.660156-4.454102,7.22168-10.400879,7.219727-16.73877l0.018555-153.223633H94.855469z M425.467773,183.335938    c0.003906,9.411133-7.966797,17.010254-17.769531,17.010254H119.137207    c-9.812988-0.018555-17.768555-7.599121-17.764648-17.010254l-0.003906-152.228516l324.115723,0.026855L425.467773,183.335938z"
         fill="url(#SVGID_9_)"
         opacity="0.4"
         id="path116" /><defs
         id="defs118"><filter
           filterUnits="userSpaceOnUse"
           height="251.499023"
           id="Adobe_OpacityMaskFilter_2_"
           width="370.760742"
           x="67.512695"
           y="244.485352"><feFlood
             result="back"
             style="flood-color:white;flood-opacity:1"
             id="feFlood121" /><feBlend
             in="SourceGraphic"
             in2="back"
             mode="normal"
             id="feBlend123" /></filter></defs><mask
         height="251.499023"
         id="SVGID_10_"
         maskUnits="userSpaceOnUse"
         width="370.760742"
         x="67.512695"
         y="244.485352"><g
           filter="url(#Adobe_OpacityMaskFilter_2_)"
           id="g126"><defs
             id="defs128"><filter
               filterUnits="userSpaceOnUse"
               height="251.499023"
               id="Adobe_OpacityMaskFilter_3_"
               width="370.760742"
               x="67.512695"
               y="244.485352"><feFlood
                 result="back"
                 style="flood-color:white;flood-opacity:1"
                 id="feFlood131" /><feBlend
                 in="SourceGraphic"
                 in2="back"
                 mode="normal"
                 id="feBlend133" /></filter></defs><mask
             height="251.499023"
             id="mask135"
             maskUnits="userSpaceOnUse"
             width="370.760742"
             x="67.512695"
             y="244.485352"><g
               filter="url(#Adobe_OpacityMaskFilter_3_)"
               id="g137" /></mask><linearGradient
             gradientUnits="userSpaceOnUse"
             id="SVGID_11_"
             x1="65.510742"
             x2="436.271484"
             y1="370.234375"
             y2="370.234375"><stop
               offset="0"
               style="stop-color:#000000"
               id="stop140" /><stop
               offset="0.290909"
               style="stop-color:#FFFFFF"
               id="stop142" /><stop
               offset="0.757576"
               style="stop-color:#FFFFFF"
               id="stop144" /><stop
               offset="1"
               style="stop-color:#000000"
               id="stop146" /></linearGradient><path
             d="M74.027832,495.984375v-225.68457      c0-10.667969,8.629883-19.289062,19.290039-19.297363h319.144043c10.65625,0,19.288086,8.645996,19.291992,19.293457      l0.003906,225.688477h6.515625l-0.003906-225.692383c-0.006836-14.229492-11.582031-25.806641-25.807617-25.806641H93.311523      c-14.228027,0.01416-25.798828,11.59375-25.798828,25.814453v225.68457H74.027832z"
             fill="url(#SVGID_11_)"
             mask="url(#SVGID_10_)"
             id="path148" /></g></mask><linearGradient
         gradientUnits="userSpaceOnUse"
         id="SVGID_12_"
         x1="65.510742"
         x2="436.271484"
         y1="370.234375"
         y2="370.234375"><stop
           offset="0"
           style="stop-color:#FFFFFF"
           id="stop151" /><stop
           offset="0.290909"
           style="stop-color:#FFFFFF"
           id="stop153" /><stop
           offset="0.757576"
           style="stop-color:#FFFFFF"
           id="stop155" /><stop
           offset="1"
           style="stop-color:#FFFFFF"
           id="stop157" /></linearGradient><path
         d="M74.027832,495.984375v-225.68457    c0-10.667969,8.629883-19.289062,19.290039-19.297363h319.144043c10.65625,0,19.288086,8.645996,19.291992,19.293457    l0.003906,225.688477h6.515625l-0.003906-225.692383c-0.006836-14.229492-11.582031-25.806641-25.807617-25.806641H93.311523    c-14.228027,0.01416-25.798828,11.59375-25.798828,25.814453v225.68457H74.027832z"
         fill="url(#SVGID_12_)"
         opacity="0.2"
         id="path159" /></g><g
       id="g161"><path
         d="M124.634277,21.080078l-5.622559,9.036133v147.469238    c-0.016602,8.586426,6.218262,15.524414,13.920898,15.516113l225.556641,0.008301    c7.700195-0.008301,13.941406-6.937988,13.941406-15.499512V32.793457l5.045898-11.713379H124.634277z M202.264648,175.524414    h-48.28418V50.533691l48.28418,0.010254V175.524414z"
         fill="#B3B3B3"
         id="path163" /><linearGradient
         gradientUnits="userSpaceOnUse"
         id="SVGID_13_"
         x1="241.377441"
         x2="241.377441"
         y1="193.109863"
         y2="30.76297"><stop
           offset="0.024096"
           style="stop-color:#808080"
           id="stop166" /><stop
           offset="0.048193"
           style="stop-color:#B4B4B5"
           id="stop168" /><stop
           offset="0.524096"
           style="stop-color:#B4B4B5"
           id="stop170" /><stop
           offset="0.662651"
           style="stop-color:#CBCBCC"
           id="stop172" /><stop
           offset="1"
           style="stop-color:#FFFFFF"
           id="stop174" /></linearGradient><path
         d="M114.666992,177.585449c-0.016602,8.586426,6.220215,15.524414,13.920898,15.516113    l225.556641,0.008301c7.700195-0.008301,13.943359-6.937988,13.943359-15.499512V30.130859l-253.420898-0.014648V177.585449z     M197.919922,175.524414h-48.28418V50.533691l48.28418,0.010254V175.524414z"
         fill="url(#SVGID_13_)"
         id="path176" /><defs
         id="defs178"><filter
           filterUnits="userSpaceOnUse"
           height="162.993652"
           id="Adobe_OpacityMaskFilter_4_"
           width="253.420898"
           x="114.666992"
           y="30.116211"><feFlood
             result="back"
             style="flood-color:white;flood-opacity:1"
             id="feFlood181" /><feBlend
             in="SourceGraphic"
             in2="back"
             mode="normal"
             id="feBlend183" /></filter></defs><mask
         height="162.993652"
         id="SVGID_14_"
         maskUnits="userSpaceOnUse"
         width="253.420898"
         x="114.666992"
         y="30.116211"><g
           filter="url(#Adobe_OpacityMaskFilter_4_)"
           id="g186"><defs
             id="defs188"><filter
               filterUnits="userSpaceOnUse"
               height="162.993652"
               id="Adobe_OpacityMaskFilter_5_"
               width="253.420898"
               x="114.666992"
               y="30.116211"><feFlood
                 result="back"
                 style="flood-color:white;flood-opacity:1"
                 id="feFlood191" /><feBlend
                 in="SourceGraphic"
                 in2="back"
                 mode="normal"
                 id="feBlend193" /></filter></defs><mask
             height="162.993652"
             id="mask195"
             maskUnits="userSpaceOnUse"
             width="253.420898"
             x="114.666992"
             y="30.116211"><g
               filter="url(#Adobe_OpacityMaskFilter_5_)"
               id="g197" /></mask><linearGradient
             gradientUnits="userSpaceOnUse"
             id="SVGID_15_"
             x1="114.666992"
             x2="368.087891"
             y1="111.613281"
             y2="111.613281"><stop
               offset="0"
               style="stop-color:#333333"
               id="stop200" /><stop
               offset="0.313253"
               style="stop-color:#FFFFFF"
               id="stop202" /><stop
               offset="0.716867"
               style="stop-color:#FFFFFF"
               id="stop204" /><stop
               offset="1"
               style="stop-color:#333333"
               id="stop206" /></linearGradient><path
             d="M114.666992,30.116211v147.469238      c-0.016602,8.586426,6.220215,15.524414,13.920898,15.516113l225.556641,0.008301      c7.700195-0.008301,13.943359-6.937988,13.943359-15.499512V30.130859L114.666992,30.116211z M363.745117,177.610352      c0,6.145996-4.307617,11.148438-9.604492,11.154785h0.003906h-0.003906l0,0l-225.552734-0.006348      c-2.296387,0-4.509766-0.956543-6.245605-2.693848c-2.122559-2.131348-3.338867-5.214844-3.330566-8.471191V34.457031      l244.733398,0.020508V177.610352z"
             fill="url(#SVGID_15_)"
             mask="url(#SVGID_14_)"
             id="path208" /></g></mask><linearGradient
         gradientUnits="userSpaceOnUse"
         id="SVGID_16_"
         x1="114.666992"
         x2="368.087891"
         y1="111.613281"
         y2="111.613281"><stop
           offset="0"
           style="stop-color:#E6E6FF"
           id="stop211" /><stop
           offset="0.313253"
           style="stop-color:#E6E6FF"
           id="stop213" /><stop
           offset="0.716867"
           style="stop-color:#E6E6FF"
           id="stop215" /><stop
           offset="1"
           style="stop-color:#E6E6FF"
           id="stop217" /></linearGradient><path
         d="M114.666992,30.116211v147.469238    c-0.016602,8.586426,6.220215,15.524414,13.920898,15.516113l225.556641,0.008301    c7.700195-0.008301,13.943359-6.937988,13.943359-15.499512V30.130859L114.666992,30.116211z M363.745117,177.610352    c0,6.145996-4.307617,11.148438-9.604492,11.154785h0.003906h-0.003906l0,0l-225.552734-0.006348    c-2.296387,0-4.509766-0.956543-6.245605-2.693848c-2.122559-2.131348-3.338867-5.214844-3.330566-8.471191V34.457031    l244.733398,0.020508V177.610352z"
         fill="url(#SVGID_16_)"
         opacity="0.3"
         id="path219" /><linearGradient
         gradientUnits="userSpaceOnUse"
         id="SVGID_17_"
         x1="243.901855"
         x2="243.901855"
         y1="29.589355"
         y2="20.533062"><stop
           offset="0"
           style="stop-color:#8C8F99"
           id="stop222" /><stop
           offset="1"
           style="stop-color:#44454D"
           id="stop224" /></linearGradient><polygon
         fill="url(#SVGID_17_)"
         points="114.666992,30.878906 368.918945,30.74707 373.135742,21.080078 120.291504,21.080078       "
         id="polygon226" /><linearGradient
         gradientUnits="userSpaceOnUse"
         id="SVGID_18_"
         x1="252.892578"
         x2="252.892563"
         y1="241.01416"
         y2="494.893127"><stop
           offset="0"
           style="stop-color:#98999B"
           id="stop229" /><stop
           offset="1"
           style="stop-color:#AFAFB3"
           id="stop231" /></linearGradient><path
         d="M428.008789,482.900391l-0.005859-209.892578    c-0.003906-10.433594-8.466797-18.90918-18.905273-18.90918H96.681641    c-10.441895,0.016113-18.904785,8.467773-18.904785,18.917969v209.883789H428.008789z"
         fill="url(#SVGID_18_)"
         opacity="0.8"
         id="path233" /><linearGradient
         gradientUnits="userSpaceOnUse"
         id="SVGID_19_"
         x1="252.891602"
         x2="252.891586"
         y1="261.521484"
         y2="451.973297"><stop
           offset="0"
           style="stop-color:#DEDEE6"
           id="stop236" /><stop
           offset="1"
           style="stop-color:#EDEEF2"
           id="stop238" /></linearGradient><path
         d="M418.31543,454.625977l-0.003906-172.615234    c-0.003906-9.381836-7.62207-17.011719-17.012695-17.011719H104.48291c-9.396973,0.011719-17.014648,7.609375-17.014648,17.02832    v172.598633H418.31543z"
         fill="url(#SVGID_19_)"
         id="path240" /></g><g
       id="g242"><path
         d="M202.264648,181.243652V46.192871h-56.97168v133.674316h56.97168 M197.919922,175.524414    h-48.28418V50.533691h48.28418V175.524414z"
         fill="#FFFFFF"
         opacity="0.3"
         id="path244" /><defs
         id="defs246"><filter
           filterUnits="userSpaceOnUse"
           height="7.613281"
           id="Adobe_OpacityMaskFilter_6_"
           width="473.538086"
           x="16.37207"
           y="488.371094"><feFlood
             result="back"
             style="flood-color:white;flood-opacity:1"
             id="feFlood249" /><feBlend
             in="SourceGraphic"
             in2="back"
             mode="normal"
             id="feBlend251" /></filter></defs><mask
         height="7.613281"
         id="SVGID_20_"
         maskUnits="userSpaceOnUse"
         width="473.538086"
         x="16.37207"
         y="488.371094"><g
           filter="url(#Adobe_OpacityMaskFilter_6_)"
           id="g254"><defs
             id="defs256"><filter
               filterUnits="userSpaceOnUse"
               height="7.613281"
               id="Adobe_OpacityMaskFilter_7_"
               width="473.538086"
               x="16.37207"
               y="488.371094"><feFlood
                 result="back"
                 style="flood-color:white;flood-opacity:1"
                 id="feFlood259" /><feBlend
                 in="SourceGraphic"
                 in2="back"
                 mode="normal"
                 id="feBlend261" /></filter></defs><mask
             height="7.613281"
             id="mask263"
             maskUnits="userSpaceOnUse"
             width="473.538086"
             x="16.37207"
             y="488.371094"><g
               filter="url(#Adobe_OpacityMaskFilter_7_)"
               id="g265" /></mask><linearGradient
             gradientUnits="userSpaceOnUse"
             id="SVGID_21_"
             x1="253.141113"
             x2="253.141113"
             y1="495.960938"
             y2="477.5065"><stop
               offset="0"
               style="stop-color:#FFFFFF"
               id="stop268" /><stop
               offset="1"
               style="stop-color:#000000"
               id="stop270" /></linearGradient><path
             d="M16.37207,488.371094v1.961914      c0.776855,2.308594,3.57373,5.651367,6.451172,5.651367H482.96875c4.71582,0,6.5625-4.064453,6.941406-7.613281H16.37207z"
             fill="url(#SVGID_21_)"
             mask="url(#SVGID_20_)"
             id="path272" /></g></mask><linearGradient
         gradientUnits="userSpaceOnUse"
         id="SVGID_22_"
         x1="253.141113"
         x2="253.141113"
         y1="495.960938"
         y2="477.5065"><stop
           offset="0"
           style="stop-color:#231F20"
           id="stop275" /><stop
           offset="1"
           style="stop-color:#231F20"
           id="stop277" /></linearGradient><path
         d="M16.37207,488.371094v1.961914    c0.776855,2.308594,3.57373,5.651367,6.451172,5.651367H482.96875c4.71582,0,6.5625-4.064453,6.941406-7.613281H16.37207z"
         fill="url(#SVGID_22_)"
         opacity="0.5"
         id="path279" /><rect
         fill="#B3B3B3"
         height="4.385742"
         width="304.160156"
         x="101.735352"
         y="379.041016"
         id="rect281" /><rect
         fill="#B3B3B3"
         height="4.385742"
         width="304.160156"
         x="101.735352"
         y="339.949219"
         id="rect283" /><rect
         fill="#B3B3B3"
         height="4.385742"
         width="304.160156"
         x="101.735352"
         y="300.858398"
         id="rect285" /><rect
         fill="#B3B3B3"
         height="4.394531"
         width="304.160156"
         x="101.735352"
         y="417.352539"
         id="rect287" /><polygon
         fill="#D0D2D3"
         opacity="0.3"
         points="74.938477,25.779785 75.023438,25.779785 75.006836,31.124023 75.248047,31.124023     80.899414,21.376953 80.645996,21.360352 80.65625,16.016113 80.571777,16.016113   "
         id="polygon289" /></g></g></svg>