<?xml version="1.0" encoding="UTF-8" standalone="no"?>
<svg
   xmlns:dc="http://purl.org/dc/elements/1.1/"
   xmlns:cc="http://creativecommons.org/ns#"
   xmlns:rdf="http://www.w3.org/1999/02/22-rdf-syntax-ns#"
   xmlns:svg="http://www.w3.org/2000/svg"
   xmlns="http://www.w3.org/2000/svg"
   xmlns:xlink="http://www.w3.org/1999/xlink"
   xmlns:sodipodi="http://sodipodi.sourceforge.net/DTD/sodipodi-0.dtd"
   xmlns:inkscape="http://www.inkscape.org/namespaces/inkscape"
   contentScriptType="text/ecmascript"
   zoomAndPan="magnify"
   contentStyleType="text/css"
   version="1.1"
   width="27.521898"
   preserveAspectRatio="xMidYMid meet"
   viewBox="0 0 27.521898 24.595078"
   height="24.595078"
   x="0px"
   y="0px"
   id="svg2"
   inkscape:version="0.48.4 r9939"
   sodipodi:docname="update.svg">
  <metadata
     id="metadata58">
    <rdf:RDF>
      <cc:Work
         rdf:about="">
        <dc:format>image/svg+xml</dc:format>
        <dc:type
           rdf:resource="http://purl.org/dc/dcmitype/StillImage" />
      </cc:Work>
    </rdf:RDF>
  </metadata>
  <defs
     id="defs56" />
  <sodipodi:namedview
     pagecolor="#ffffff"
     bordercolor="#666666"
     borderopacity="1"
     objecttolerance="10"
     gridtolerance="10"
     guidetolerance="10"
     inkscape:pageopacity="0"
     inkscape:pageshadow="2"
     inkscape:window-width="640"
     inkscape:window-height="480"
     id="namedview54"
     showgrid="false"
     fit-margin-top="0"
     fit-margin-left="0"
     fit-margin-right="0"
     fit-margin-bottom="0"
     inkscape:zoom="5.9"
     inkscape:cx="13.740883"
     inkscape:cy="11.733002"
     inkscape:window-x="0"
     inkscape:window-y="0"
     inkscape:window-maximized="0"
     inkscape:current-layer="svg2" />
  <g
     id="g4"
     transform="translate(-1.2591171,-7.1379236)">
    <rect
       width="30"
       height="40"
       id="rect6"
       x="0"
       y="0"
       style="fill:none" />
  </g>
  <g
     id="g8"
     transform="translate(-1.2591171,-7.1379236)">
    <path
       d="m 28.318,20.052 c -0.176,-0.06 -0.365998,0.045 -0.44,0.245 -1.787,4.786 -4.900999,6.464002 -8.400999,6.484002 -3.285,0.004 -6.878,-1.556999 -9.743,-3.6 l 1.623,-3.616 c 0.066,-0.146999 0.055,-0.320999 -0.027,-0.455999 -0.081,-0.134001 -0.222,-0.202999 -0.361,-0.176001 L 1.57,20.746 c -0.1169999,0.021 -0.2159999,0.107 -0.2699999,0.229 -0.054,0.123 -0.054,0.268 -0.003,0.392 l 4.14,9.851 c 0.061,0.145 0.1869996,0.241 0.326,0.242001 0.139,0.002 0.268,-0.085 0.333,-0.226999 l 1.503,-3.256001 C 11.372,30.509 14.933001,31.731 18.038,31.733002 c 0.019,0 0.034,0 0.052,0 5.547001,0 9.609001,-4.062001 10.497,-11.198 C 28.611,20.318 28.497,20.111 28.318,20.052 z"
       id="path10"
       inkscape:connector-curvature="0"
       style="fill-opacity:0.2;stroke-opacity:0.2" />
    <path
       d="M 28.221,20.471 C 26.816,31.48 18.025,34.666 7.455,27.377 L 5.77,31.027 1.631,21.174 11.030001,19.362999 9.246,23.34 c 5.999,4.415 15.37,6.881 18.975,-2.869 z"
       id="path12"
       inkscape:connector-curvature="0"
       style="fill-opacity:0.5;stroke-opacity:0.5" />
    <linearGradient
       x1="-1197.582"
       gradientTransform="matrix(-0.9907,-0.1358,-0.1358,0.9907,-1013.287,-1296.5707)"
       y1="1164.2451"
       x2="-1199.1364"
       gradientUnits="userSpaceOnUse"
       y2="1175.5818"
       xlink:type="simple"
       xlink:actuate="onLoad"
       id="SVGID_1_"
       xlink:show="other">
      <stop
         stop-color="#32abcc"
         offset="0"
         id="stop15" />
      <stop
         stop-color="#0045bf"
         offset="1"
         id="stop17" />
    </linearGradient>
    <path
       d="M 28.35,19.581 C 26.944,30.591 18.155,33.777 7.583,26.49 l -1.684,3.646 -4.143,-9.85 9.4,-1.812001 L 9.373,22.45 c 6.001,4.415 15.371,6.879 18.977,-2.869 z"
       id="path19"
       inkscape:connector-curvature="0"
       style="fill:url(#SVGID_1_)" />
    <linearGradient
       x1="215.60941"
       gradientTransform="translate(-202.002,-883.0039)"
       y1="903.09473"
       x2="215.60941"
       gradientUnits="userSpaceOnUse"
       y2="911.7179"
       xlink:type="simple"
       xlink:actuate="onLoad"
       id="SVGID_2_"
       xlink:show="other">
      <stop
         stop-color="#33d9ff"
         offset="0"
         id="stop22" />
      <stop
         stop-color="#00a8eb"
         offset="1"
         id="stop24" />
    </linearGradient>
    <path
       d="m 24.627,25.548 c -1.535998,0.998 -3.26,1.442 -5.023,1.431 -3.652,-0.008 -7.499,-1.754 -10.525,-3.976 l -0.439,-0.321 1.504,-3.350001 -7.5560002,1.452999 0.1459999,0.348 C 6.159,23.986 17.869,32.762 24.627,25.548 z"
       id="path26"
       inkscape:connector-curvature="0"
       style="fill:url(#SVGID_2_)" />
    <path
       d="M 28.743,17.835 24.601,7.9819994 c -0.062,-0.145 -0.188,-0.2379999 -0.328,-0.2420001 -0.136998,-0.003 -0.267999,0.085 -0.332,0.2280002 L 22.439,11.223 C 18.664999,8.688999 15.103999,7.4659996 11.999,7.4649997 6.4229994,7.4389997 2.3389997,11.507 1.4509993,18.669 c -0.027,0.214001 0.087,0.421 0.266,0.482001 0.177,0.058 0.368,-0.048 0.4419999,-0.246001 1.7840002,-4.789999 4.8979998,-6.466999 8.4009998,-6.485999 3.285,-0.003 6.877001,1.557 9.745001,3.597999 l -1.625,3.614 c -0.066,0.147 -0.053,0.324 0.028,0.457001 0.069,0.114001 0.183,0.181999 0.302,0.184 0.02,0 0.04,-0.003 0.061,-0.006 l 9.4,-1.811001 c 0.116,-0.023 0.217,-0.108 0.270001,-0.229 0.052,-0.125 0.054,-0.268 0.002,-0.391 z"
       id="path28"
       inkscape:connector-curvature="0"
       style="fill-opacity:0.2;stroke-opacity:0.2" />
    <path
       d="M 1.819,18.731 C 3.223,7.722 12.014,4.536 22.585,11.824 l 1.683,-3.649 4.143,9.852 -9.398,1.809 1.783001,-3.974 C 14.793,11.447 5.42,8.982 1.819,18.731 z"
       id="path30"
       inkscape:connector-curvature="0"
       style="fill-opacity:0.5;stroke-opacity:0.5" />
    <linearGradient
       x1="829.85059"
       gradientTransform="matrix(0.9907,0.1358,0.1358,-0.9907,-691.1251,-940.1119)"
       y1="-853.40332"
       x2="828.29681"
       gradientUnits="userSpaceOnUse"
       y2="-842.07147"
       xlink:type="simple"
       xlink:actuate="onLoad"
       id="SVGID_3_"
       xlink:show="other">
      <stop
         stop-color="#32bd41"
         offset="0"
         id="stop33" />
      <stop
         stop-color="#39bf3d"
         offset="0.0537"
         id="stop35" />
      <stop
         stop-color="#55c52d"
         offset="0.2883"
         id="stop37" />
      <stop
         stop-color="#69c922"
         offset="0.5245"
         id="stop39" />
      <stop
         stop-color="#75cc1b"
         offset="0.7614"
         id="stop41" />
      <stop
         stop-color="#79cd19"
         offset="1"
         id="stop43" />
    </linearGradient>
    <path
       d="M 1.819,17.968 C 3.223,6.959 12.014,3.773 22.585,11.061 L 24.268,7.4119997 28.411,17.262001 19.013,19.072 20.796001,15.1 C 14.793,10.684 5.42,8.219 1.819,17.968 z"
       id="path45"
       inkscape:connector-curvature="0"
       style="fill:url(#SVGID_3_)" />
    <linearGradient
       x1="218.3848"
       gradientTransform="translate(-202.002,-883.0039)"
       y1="898.92682"
       x2="218.3848"
       gradientUnits="userSpaceOnUse"
       y2="890.40448"
       xlink:type="simple"
       xlink:actuate="onLoad"
       id="SVGID_4_"
       xlink:show="other">
      <stop
         stop-color="#32ed41"
         offset="0"
         id="stop48" />
      <stop
         stop-color="#c9ff8f"
         offset="1"
         id="stop50" />
    </linearGradient>
    <path
       d="M 22.797,11.965 22.301,11.621 C 18.508,9.006 14.98,7.787 12,7.788 9.21,7.809 6.905,8.854 5.22,10.85 7.9779997,9.280001 14.555,7.9470005 27.545,16.679 L 24.243,8.832001 22.797,11.965 z"
       id="path52"
       inkscape:connector-curvature="0"
       style="fill:url(#SVGID_4_)" />
  </g>
</svg>
